RobotoSerifText-SuperWdth530.ufo
<glyph name="exclam" format="2">
  <advance width="314"/>
  <unicode hex="0021"/>
  <outline>
    <contour>
      <point x="266" y="714" type="line"/>
      <point x="266" y="551"/>
      <point x="230" y="450"/>
      <point x="230" y="255" type="curve"/>
      <point x="84" y="255" type="line"/>
      <point x="84" y="450"/>
      <point x="48" y="550"/>
      <point x="48" y="714" type="curve"/>
    </contour>
    <component base="period"/>
  </outline>
</glyph>
<glyph name="numbersign" format="2">
  <advance width="524.506"/>
  <unicode hex="0023"/>
  <outline>
    <contour>
      <point x="36.162" y="0.0" type="line"/>
      <point x="129.02" y="0.0" type="line"/>
      <point x="307.06399999999996" y="750.0" type="line"/>
      <point x="214.3" y="750.0" type="line"/>
    </contour>
    <contour>
      <point x="4.684000000000001" y="190.82" type="line"/>
      <point x="472.752" y="190.82" type="line"/>
      <point x="472.752" y="329.62" type="line"/>
      <point x="4.684000000000001" y="329.62" type="line"/>
    </contour>
    <contour>
      <point x="54.178000000000004" y="440.38" type="line"/>
      <point x="522.152" y="440.38" type="line"/>
      <point x="522.152" y="579.18" type="line"/>
      <point x="54.178000000000004" y="579.18" type="line"/>
    </contour>
    <contour>
      <point x="203.262" y="0.0" type="line"/>
      <point x="296.12" y="0.0" type="line"/>
      <point x="474.164" y="750.0" type="line"/>
      <point x="379.964" y="750.0" type="line"/>
    </contour>
  </outline>
</glyph>
<glyph name="quotesingle" format="2">
  <advance width="218.86599999999999"/>
  <unicode hex="0027"/>
  <outline>
    <contour>
      <point x="186.446" y="710.0" type="line"/>
      <point x="186.446" y="616.22"/>
      <point x="163.76999999999998" y="586.38"/>
      <point x="163.76999999999998" y="445.76" type="curve"/>
      <point x="55.096000000000004" y="445.76" type="line"/>
      <point x="55.096000000000004" y="586.38"/>
      <point x="32.42" y="615.22"/>
      <point x="32.42" y="710.0" type="curve"/>
    </contour>
  </outline>
</glyph>
<glyph name="seven" format="2">
  <advance width="467.88"/>
  <unicode hex="0037"/>
  <outline>
    <contour>
      <point x="184.834" y="460.62" type="line" smooth="yes"/>
      <point x="138.422" y="460.62"/>
      <point x="121.206" y="453.62"/>
      <point x="117.582" y="417.62" type="curve" smooth="yes"/>
      <point x="111.828" y="343.1" type="line"/>
      <point x="40.528" y="343.1" type="line"/>
      <point x="40.528" y="609.0" type="line"/>
      <point x="451.488" y="609.0" type="line"/>
      <point x="451.488" y="474.52" type="line"/>
      <point x="366.902" y="329.6"/>
      <point x="324.16200000000003" y="228.28"/>
      <point x="321.55" y="-77.0" type="curve"/>
      <point x="117.18200000000002" y="-77.0" type="line"/>
      <point x="133.06799999999998" y="212.96"/>
      <point x="307.57" y="410.76"/>
      <point x="390.802" y="496.12" type="curve"/>
      <point x="415.00800000000004" y="460.62" type="line"/>
    </contour>
  </outline>
</glyph>
<glyph name="D" format="2">
  <advance width="696"/>
  <unicode hex="0044"/>
  <anchor x="326" y="741.0" name="top"/>
  <anchor x="326" y="0.0" name="bottom"/>
  <outline>
    <contour>
      <point x="15" y="633" type="line"/>
      <point x="24" y="633" type="line" smooth="yes"/>
      <point x="40" y="633"/>
      <point x="52" y="624"/>
      <point x="52" y="597" type="curve" smooth="yes"/>
      <point x="52" y="113" type="line" smooth="yes"/>
      <point x="52" y="84"/>
      <point x="40" y="77"/>
      <point x="24" y="77" type="curve" smooth="yes"/>
      <point x="15" y="77" type="line"/>
      <point x="15" y="0" type="line"/>
      <point x="335" y="0" type="line" smooth="yes"/>
      <point x="534" y="0"/>
      <point x="676" y="132"/>
      <point x="676" y="357" type="curve" smooth="yes"/>
      <point x="676" y="583"/>
      <point x="534" y="710"/>
      <point x="335" y="710" type="curve" smooth="yes"/>
      <point x="15" y="710" type="line"/>
    </contour>
    <contour>
      <point x="323" y="622" type="line" smooth="yes"/>
      <point x="378" y="622"/>
      <point x="422" y="527"/>
      <point x="422" y="357" type="curve" smooth="yes"/>
      <point x="422" y="187"/>
      <point x="378" y="88"/>
      <point x="323" y="88" type="curve" smooth="yes"/>
      <point x="298" y="88" type="line"/>
      <point x="298" y="622" type="line"/>
    </contour>
  </outline>
</glyph>
<glyph name="F" format="2">
  <advance width="529"/>
  <unicode hex="0046"/>
  <outline>
    <contour>
      <point x="298" y="623" type="line"/>
      <point x="348" y="623" type="line" smooth="yes"/>
      <point x="382" y="623"/>
      <point x="411" y="616"/>
      <point x="414" y="580" type="curve" smooth="yes"/>
      <point x="418" y="503" type="line"/>
      <point x="515" y="503" type="line"/>
      <point x="515" y="710" type="line"/>
      <point x="15" y="710" type="line"/>
      <point x="15" y="633" type="line"/>
      <point x="23" y="633" type="line" smooth="yes"/>
      <point x="40" y="633"/>
      <point x="52" y="626"/>
      <point x="52" y="597" type="curve" smooth="yes"/>
      <point x="52" y="113" type="line" smooth="yes"/>
      <point x="52" y="84"/>
      <point x="40" y="77"/>
      <point x="23" y="77" type="curve" smooth="yes"/>
      <point x="15" y="77" type="line"/>
      <point x="15" y="0" type="line"/>
      <point x="352" y="0" type="line"/>
      <point x="352" y="77" type="line"/>
      <point x="338" y="77" type="line" smooth="yes"/>
      <point x="320" y="77"/>
      <point x="298" y="78"/>
      <point x="298" y="113" type="curve" smooth="yes"/>
    </contour>
    <contour>
      <point x="275" y="394" type="curve"/>
      <point x="275" y="319" type="line"/>
      <point x="331" y="315"/>
      <point x="387" y="310"/>
      <point x="443" y="306" type="curve"/>
      <point x="443" y="407" type="line"/>
      <point x="387" y="403"/>
      <point x="331" y="398"/>
    </contour>
  </outline>
</glyph>
<glyph name="O" format="2">
  <advance width="683"/>
  <unicode hex="004F"/>
  <anchor x="332" y="741.0" name="top"/>
  <anchor x="332" y="0.0" name="bottom"/>
  <outline>
    <contour>
      <point x="342" y="720" type="curve" smooth="yes"/>
      <point x="150" y="720"/>
      <point x="20" y="575"/>
      <point x="20" y="355" type="curve" smooth="yes"/>
      <point x="20" y="134"/>
      <point x="150" y="-10"/>
      <point x="342" y="-10" type="curve" smooth="yes"/>
      <point x="533" y="-10"/>
      <point x="663" y="134"/>
      <point x="663" y="355" type="curve" smooth="yes"/>
      <point x="663" y="575"/>
      <point x="533" y="720"/>
    </contour>
    <contour>
      <point x="342" y="84" type="curve" smooth="yes"/>
      <point x="298" y="84"/>
      <point x="274" y="177"/>
      <point x="274" y="355" type="curve" smooth="yes"/>
      <point x="274" y="533"/>
      <point x="298" y="626"/>
      <point x="342" y="626" type="curve" smooth="yes"/>
      <point x="386" y="626"/>
      <point x="409" y="533"/>
      <point x="409" y="355" type="curve" smooth="yes"/>
      <point x="409" y="177"/>
      <point x="386" y="84"/>
    </contour>
  </outline>
</glyph>
<glyph name="U" format="2">
  <advance width="610"/>
  <unicode hex="0055"/>
  <anchor x="341" y="741.0" name="top"/>
  <anchor x="387" y="0.0" name="right"/>
  <anchor x="341" y="0.0" name="bottom"/>
  <outline>
    <contour>
      <point x="295" y="279" type="curve" smooth="yes"/>
      <point x="295" y="623" type="line" smooth="yes"/>
      <point x="295" y="630"/>
      <point x="311" y="633"/>
      <point x="323" y="633" type="curve" smooth="yes"/>
      <point x="331" y="633" type="line"/>
      <point x="331" y="710" type="line"/>
      <point x="13" y="710" type="line"/>
      <point x="13" y="633" type="line"/>
      <point x="21" y="633" type="line" smooth="yes"/>
      <point x="38" y="633"/>
      <point x="50" y="626"/>
      <point x="50" y="597" type="curve" smooth="yes"/>
      <point x="50" y="279" type="line" smooth="yes"/>
      <point x="50" y="76"/>
      <point x="151" y="-10"/>
      <point x="318" y="-10" type="curve" smooth="yes"/>
      <point x="456" y="-10"/>
      <point x="560" y="73"/>
      <point x="560" y="279" type="curve" smooth="yes"/>
      <point x="560" y="596" type="line" smooth="yes"/>
      <point x="560" y="625"/>
      <point x="572" y="633"/>
      <point x="589" y="633" type="curve" smooth="yes"/>
      <point x="597" y="633" type="line"/>
      <point x="597" y="710" type="line"/>
      <point x="435" y="710" type="line"/>
      <point x="435" y="633" type="line"/>
      <point x="442" y="633" type="line" smooth="yes"/>
      <point x="456" y="633"/>
      <point x="472" y="627"/>
      <point x="472" y="613" type="curve" smooth="yes"/>
      <point x="472" y="279" type="line" smooth="yes"/>
      <point x="472" y="149"/>
      <point x="440" y="96"/>
      <point x="382" y="96" type="curve" smooth="yes"/>
      <point x="316" y="96"/>
      <point x="295" y="145"/>
    </contour>
  </outline>
</glyph>
<glyph name="Z" format="2">
  <advance width="544"/>
  <unicode hex="005A"/>
  <anchor x="275" y="741.0" name="top"/>
  <anchor x="275" y="0.0" name="bottom"/>
  <outline>
    <contour>
      <point x="159" y="88" type="line"/>
      <point x="202" y="9" type="line"/>
      <point x="520" y="601" type="line"/>
      <point x="520" y="710" type="line"/>
      <point x="26" y="710" type="line"/>
      <point x="26" y="494" type="line"/>
      <point x="125" y="494" type="line"/>
      <point x="129" y="579" type="line" smooth="yes"/>
      <point x="130" y="615"/>
      <point x="160" y="622"/>
      <point x="196" y="622" type="curve" smooth="yes"/>
      <point x="349" y="622" type="line"/>
      <point x="317" y="689" type="line"/>
      <point x="8" y="113" type="line"/>
      <point x="8" y="0" type="line"/>
      <point x="536" y="0" type="line"/>
      <point x="536" y="240" type="line"/>
      <point x="437" y="240" type="line"/>
      <point x="427" y="131" type="line" smooth="yes"/>
      <point x="423" y="95"/>
      <point x="400" y="88"/>
      <point x="338" y="88" type="curve" smooth="yes"/>
    </contour>
  </outline>
</glyph>
<glyph name="asciicircum" format="2">
  <advance width="419.28"/>
  <unicode hex="005E"/>
  <outline>
    <contour>
      <point x="163.264" y="351.96" type="line"/>
      <point x="248.93200000000002" y="685.0" type="line"/>
      <point x="251.262" y="710.0" type="line"/>
      <point x="124.27800000000002" y="710.0" type="line"/>
      <point x="6.872" y="351.96" type="line"/>
    </contour>
    <contour>
      <point x="252.392" y="351.96" type="line"/>
      <point x="412.972" y="351.96" type="line"/>
      <point x="295.002" y="710.0" type="line"/>
      <point x="165.488" y="710.0" type="line"/>
      <point x="166.288" y="686.0" type="line"/>
    </contour>
  </outline>
</glyph>
<glyph name="h" format="2">
  <advance width="580"/>
  <unicode hex="0068"/>
  <anchor x="283" y="734" name="top"/>
  <anchor x="275" y="0.0" name="bottom"/>
  <outline>
    <contour>
      <point x="573" y="0" type="line"/>
      <point x="573" y="72" type="line"/>
      <point x="572" y="72" type="line" smooth="yes"/>
      <point x="562" y="72"/>
      <point x="553" y="78"/>
      <point x="553" y="99" type="curve"/>
      <point x="553" y="345" type="line" smooth="yes"/>
      <point x="553" y="461"/>
      <point x="494" y="523"/>
      <point x="403" y="523" type="curve" smooth="yes"/>
      <point x="323" y="523"/>
      <point x="257" y="473"/>
      <point x="239" y="394" type="curve"/>
      <point x="239" y="285" type="line"/>
      <point x="259" y="367"/>
      <point x="276" y="407"/>
      <point x="302" y="407" type="curve" smooth="yes"/>
      <point x="315" y="407"/>
      <point x="323" y="388"/>
      <point x="323" y="351" type="curve" smooth="yes"/>
      <point x="323" y="80" type="line" smooth="yes"/>
      <point x="323" y="74"/>
      <point x="313" y="72"/>
      <point x="306" y="72" type="curve" smooth="yes"/>
      <point x="306" y="72" type="line"/>
      <point x="306" y="0" type="line"/>
    </contour>
    <contour>
      <point x="260" y="735" type="line"/>
      <point x="9" y="735" type="line"/>
      <point x="9" y="660" type="line"/>
      <point x="15" y="658" type="line" smooth="yes"/>
      <point x="26" y="651"/>
      <point x="29" y="647"/>
      <point x="29" y="629" type="curve" smooth="yes"/>
      <point x="29" y="99" type="line"/>
      <point x="29" y="78"/>
      <point x="21" y="72"/>
      <point x="10" y="72" type="curve" smooth="yes"/>
      <point x="9" y="72" type="line"/>
      <point x="9" y="0" type="line"/>
      <point x="278" y="0" type="line"/>
      <point x="278" y="72" type="line"/>
      <point x="275" y="72" type="line" smooth="yes"/>
      <point x="270" y="72"/>
      <point x="260" y="74"/>
      <point x="260" y="80" type="curve"/>
    </contour>
  </outline>
</glyph>
<glyph name="k" format="2">
  <advance width="616"/>
  <unicode hex="006B"/>
  <anchor x="268" y="0.0" name="bottom"/>
  <outline>
    <contour>
      <point x="616" y="0" type="line"/>
      <point x="616" y="72" type="line"/>
      <point x="614" y="72" type="line"/>
      <point x="594" y="72"/>
      <point x="576" y="80"/>
      <point x="567" y="104" type="curve"/>
      <point x="461" y="386" type="line"/>
      <point x="376" y="269" type="line"/>
      <point x="504" y="402" type="line"/>
      <point x="521" y="424"/>
      <point x="544" y="442"/>
      <point x="576" y="442" type="curve"/>
      <point x="577" y="442" type="line"/>
      <point x="577" y="513" type="line"/>
      <point x="352" y="513" type="line"/>
      <point x="352" y="442" type="line"/>
      <point x="359" y="442" type="line" smooth="yes"/>
      <point x="377" y="442"/>
      <point x="413" y="438"/>
      <point x="413" y="424" type="curve"/>
      <point x="276" y="280" type="line"/>
      <point x="276" y="250" type="line"/>
      <point x="327" y="80" type="line"/>
      <point x="327" y="74"/>
      <point x="317" y="72"/>
      <point x="312" y="72" type="curve" smooth="yes"/>
      <point x="309" y="72" type="line"/>
      <point x="309" y="0" type="line"/>
    </contour>
    <contour>
      <point x="260" y="735" type="line"/>
      <point x="9" y="735" type="line"/>
      <point x="9" y="660" type="line"/>
      <point x="15" y="658" type="line" smooth="yes"/>
      <point x="26" y="651"/>
      <point x="29" y="647"/>
      <point x="29" y="629" type="curve" smooth="yes"/>
      <point x="29" y="99" type="line"/>
      <point x="29" y="78"/>
      <point x="20" y="72"/>
      <point x="10" y="72" type="curve" smooth="yes"/>
      <point x="9" y="72" type="line"/>
      <point x="9" y="0" type="line"/>
      <point x="278" y="0" type="line"/>
      <point x="278" y="72" type="line"/>
      <point x="275" y="72" type="line" smooth="yes"/>
      <point x="270" y="72"/>
      <point x="260" y="74"/>
      <point x="260" y="80" type="curve"/>
    </contour>
  </outline>
</glyph>
<glyph name="o" format="2">
  <advance width="569"/>
  <unicode hex="006F"/>
  <anchor x="258" y="551.0" name="top"/>
  <anchor x="344" y="0.0" name="right"/>
  <anchor x="258" y="0.0" name="bottom"/>
  <outline>
    <contour>
      <point x="284" y="-10" type="curve" smooth="yes"/>
      <point x="456" y="-10"/>
      <point x="554" y="99"/>
      <point x="554" y="257" type="curve"/>
      <point x="554" y="415"/>
      <point x="456" y="524"/>
      <point x="284" y="524" type="curve" smooth="yes"/>
      <point x="113" y="524"/>
      <point x="15" y="416"/>
      <point x="15" y="257" type="curve"/>
      <point x="15" y="98"/>
      <point x="113" y="-10"/>
    </contour>
    <contour>
      <point x="284" y="80" type="curve" smooth="yes"/>
      <point x="259" y="80"/>
      <point x="250" y="136"/>
      <point x="250" y="257" type="curve"/>
      <point x="250" y="378"/>
      <point x="259" y="434"/>
      <point x="284" y="434" type="curve" smooth="yes"/>
      <point x="310" y="434"/>
      <point x="319" y="378"/>
      <point x="319" y="257" type="curve"/>
      <point x="319" y="136"/>
      <point x="310" y="80"/>
    </contour>
  </outline>
</glyph>
<glyph name="t" format="2">
  <advance width="370"/>
  <unicode hex="0074"/>
  <anchor x="131" y="675.0" name="top"/>
  <anchor x="245" y="681.0" name="right"/>
  <anchor x="205" y="0.0" name="bottom"/>
  <outline>
    <contour>
      <point x="267" y="182" type="curve" smooth="yes"/>
      <point x="267" y="652" type="line"/>
      <point x="42" y="652" type="line"/>
      <point x="42" y="500" type="line"/>
      <point x="37" y="492" type="line"/>
      <point x="37" y="175" type="line" smooth="yes"/>
      <point x="37" y="37"/>
      <point x="115" y="-10"/>
      <point x="239" y="-10" type="curve" smooth="yes"/>
      <point x="301" y="-10"/>
      <point x="345" y="1"/>
      <point x="356" y="9" type="curve"/>
      <point x="356" y="97" type="line"/>
      <point x="351" y="95"/>
      <point x="330" y="87"/>
      <point x="311" y="87" type="curve" smooth="yes"/>
      <point x="280" y="87"/>
      <point x="267" y="106"/>
    </contour>
    <contour>
      <point x="42" y="547" type="line"/>
      <point x="42" y="515"/>
      <point x="23" y="508"/>
      <point x="1" y="508" type="curve"/>
      <point x="0" y="508" type="line"/>
      <point x="0" y="432" type="line"/>
      <point x="74" y="432" type="line"/>
    </contour>
    <contour>
      <point x="167" y="432" type="line"/>
      <point x="358" y="432" type="line"/>
      <point x="358" y="513" type="line"/>
      <point x="167" y="513" type="line"/>
    </contour>
  </outline>
</glyph>
<glyph name="w" format="2">
  <advance width="745"/>
  <unicode hex="0077"/>
  <anchor x="358.382" y="551.0" name="top"/>
  <outline>
    <contour>
      <point x="386.342" y="341.91999999999996" type="line"/>
      <point x="332.564" y="0.0" type="line"/>
      <point x="113.64" y="0.0" type="line"/>
      <point x="40.728" y="408.78" type="line" smooth="yes"/>
      <point x="37.17400000000001" y="433.78"/>
      <point x="29.69" y="442.36"/>
      <point x="8.732" y="442.36" type="curve" smooth="yes"/>
      <point x="7.096" y="442.36" type="line"/>
      <point x="7.096" y="513.16" type="line"/>
      <point x="299.568" y="513.16" type="line"/>
      <point x="299.568" y="442.36" type="line"/>
      <point x="298.768" y="442.36" type="line" smooth="yes"/>
      <point x="283.376" y="442.36"/>
      <point x="266.842" y="440.36"/>
      <point x="266.842" y="433.36" type="curve"/>
      <point x="307.758" y="113.46" type="line"/>
      <point x="268.478" y="54.12" type="line"/>
      <point x="353.24" y="513.16" type="line"/>
      <point x="537.674" y="513.16" type="line"/>
      <point x="606.114" y="113.6" type="line"/>
      <point x="558.42" y="57.7" type="line"/>
      <point x="623.236" y="421.36" type="line"/>
      <point x="623.636" y="433.5"/>
      <point x="606.5260000000001" y="442.36"/>
      <point x="594.276" y="442.36" type="curve" smooth="yes"/>
      <point x="593.476" y="442.36" type="line"/>
      <point x="593.476" y="513.16" type="line"/>
      <point x="737.688" y="513.16" type="line"/>
      <point x="737.688" y="442.36" type="line"/>
      <point x="735.958" y="442.36" type="line" smooth="yes"/>
      <point x="721.072" y="442.36"/>
      <point x="711.458" y="431.22"/>
      <point x="706.268" y="400.22" type="curve" smooth="yes"/>
      <point x="633.78" y="0.0" type="line"/>
      <point x="414.22" y="0.0" type="line"/>
      <point x="370.762" y="353.82" type="line"/>
    </contour>
  </outline>
</glyph>
<glyph name="x" format="2">
  <advance width="509"/>
  <unicode hex="0078"/>
  <outline>
    <contour>
      <point x="501" y="0" type="line"/>
      <point x="501" y="71" type="line"/>
      <point x="501" y="71" type="line"/>
      <point x="483" y="71"/>
      <point x="479" y="82"/>
      <point x="466" y="105" type="curve" smooth="yes"/>
      <point x="372" y="280" type="line"/>
      <point x="368" y="284" type="line"/>
      <point x="288" y="434" type="line"/>
      <point x="288" y="440"/>
      <point x="303" y="442"/>
      <point x="315" y="442" type="curve" smooth="yes"/>
      <point x="317" y="442" type="line"/>
      <point x="317" y="513" type="line"/>
      <point x="7" y="513" type="line"/>
      <point x="7" y="441" type="line"/>
      <point x="7" y="441" type="line"/>
      <point x="23" y="441"/>
      <point x="26" y="436"/>
      <point x="37" y="415" type="curve" smooth="yes"/>
      <point x="143" y="219" type="line"/>
      <point x="151" y="207" type="line"/>
      <point x="220" y="80" type="line"/>
      <point x="220" y="73"/>
      <point x="204" y="71"/>
      <point x="191" y="71" type="curve" smooth="yes"/>
      <point x="189" y="71" type="line"/>
      <point x="189" y="0" type="line"/>
    </contour>
    <contour>
      <point x="12" y="0" type="line"/>
      <point x="153" y="0" type="line"/>
      <point x="153" y="71" type="line"/>
      <point x="152" y="71" type="line" smooth="yes"/>
      <point x="140" y="71"/>
      <point x="127" y="79"/>
      <point x="127" y="91" type="curve"/>
      <point x="217" y="240" type="line"/>
      <point x="154" y="274" type="line"/>
      <point x="48" y="109" type="line" smooth="yes"/>
      <point x="33" y="84"/>
      <point x="26" y="71"/>
      <point x="13" y="71" type="curve"/>
      <point x="12" y="71" type="line"/>
    </contour>
    <contour>
      <point x="359" y="244" type="line"/>
      <point x="454" y="397" type="line" smooth="yes"/>
      <point x="471" y="427"/>
      <point x="478" y="442"/>
      <point x="493" y="442" type="curve"/>
      <point x="493" y="442" type="line"/>
      <point x="493" y="513" type="line"/>
      <point x="358" y="513" type="line"/>
      <point x="358" y="442" type="line"/>
      <point x="361" y="442" type="line" smooth="yes"/>
      <point x="371" y="442"/>
      <point x="381" y="434"/>
      <point x="381" y="422" type="curve"/>
      <point x="296" y="281" type="line"/>
    </contour>
  </outline>
</glyph>
<glyph name="ordmasculine" format="2">
  <advance width="447.616"/>
  <unicode hex="00BA"/>
  <outline>
    <contour>
      <point x="223.808" y="310.0" type="curve" smooth="yes"/>
      <point x="357.9" y="310.0"/>
      <point x="435.872" y="392.86"/>
      <point x="435.872" y="515.86" type="curve" smooth="yes"/>
      <point x="435.872" y="637.86"/>
      <point x="357.9" y="720.0"/>
      <point x="223.808" y="720.0" type="curve" smooth="yes"/>
      <point x="89.71600000000001" y="720.0"/>
      <point x="11.744000000000003" y="637.86"/>
      <point x="11.744000000000003" y="515.86" type="curve" smooth="yes"/>
      <point x="11.744000000000003" y="392.86"/>
      <point x="89.71600000000001" y="310.0"/>
    </contour>
    <contour>
      <point x="223.808" y="386.36" type="curve" smooth="yes"/>
      <point x="203.66199999999998" y="386.36"/>
      <point x="197.484" y="426.58"/>
      <point x="197.484" y="515.86" type="curve" smooth="yes"/>
      <point x="197.484" y="602.86"/>
      <point x="203.66199999999998" y="643.64"/>
      <point x="223.808" y="643.64" type="curve" smooth="yes"/>
      <point x="243.954" y="643.64"/>
      <point x="250.132" y="602.86"/>
      <point x="250.132" y="515.86" type="curve" smooth="yes"/>
      <point x="250.132" y="426.58"/>
      <point x="243.954" y="386.36"/>
    </contour>
  </outline>
</glyph>
<glyph name="Eth" format="2">
  <advance width="696"/>
  <unicode hex="00D0"/>
  <outline>
    <contour>
      <point x="14.392" y="401.64" type="line"/>
      <point x="359.324" y="401.64" type="line"/>
      <point x="359.324" y="308.36" type="line"/>
      <point x="14.392" y="308.36" type="line"/>
    </contour>
    <component base="D" xOffset="-39.762"/>
  </outline>
</glyph>
<glyph name="germandbls" format="2">
  <advance width="598.806"/>
  <unicode hex="00DF"/>
  <outline>
    <contour>
      <point x="-6.378" y="513.16" type="line"/>
      <point x="-6.378" y="432.08" type="line"/>
      <point x="105.92" y="432.08" type="line"/>
      <point x="105.92" y="513.16" type="line"/>
    </contour>
    <contour>
      <point x="7.990000000000002" y="0.0" type="line"/>
      <point x="277.374" y="0.0" type="line"/>
      <point x="277.374" y="555.52" type="line" smooth="yes"/>
      <point x="277.374" y="632.58"/>
      <point x="282.458" y="659.02"/>
      <point x="308.864" y="659.02" type="curve" smooth="yes"/>
      <point x="328.434" y="659.02"/>
      <point x="336.13" y="635.2"/>
      <point x="336.13" y="584.54" type="curve" smooth="yes"/>
      <point x="336.13" y="500.34408596491227"/>
      <point x="316.4990770155577" y="464.30553121204605"/>
      <point x="300.68600000000004" y="456.74" type="curve"/>
      <point x="300.68600000000004" y="380.66" type="line"/>
      <point x="305.15799999999996" y="379.8" type="line" smooth="yes"/>
      <point x="332.192206430164" y="372.05595707834317"/>
      <point x="350.204" y="311.02"/>
      <point x="350.204" y="208.22" type="curve" smooth="yes"/>
      <point x="350.204" y="103.32"/>
      <point x="329.034" y="78.82"/>
      <point x="314.254" y="78.82" type="curve" smooth="yes"/>
      <point x="305.758" y="78.82"/>
      <point x="304.24" y="85.19999999999999"/>
      <point x="300.68600000000004" y="86.48" type="curve"/>
      <point x="300.68600000000004" y="8.42" type="line"/>
      <point x="321.444" y="-0.5800000000000001"/>
      <point x="357.7" y="-10.0"/>
      <point x="397.68600000000004" y="-10.0" type="curve" smooth="yes"/>
      <point x="517.316" y="-10.0"/>
      <point x="585.344" y="60.16"/>
      <point x="585.344" y="195.32" type="curve" smooth="yes"/>
      <point x="585.344" y="327.1153048387384"/>
      <point x="488.34897696712005" y="423.6396178399596"/>
      <point x="345.544" y="443.46" type="curve"/>
      <point x="333.88200000000006" y="424.46" type="line"/>
      <point x="448.44" y="421.7"/>
      <point x="544.322" y="475.0757112299124"/>
      <point x="544.322" y="583.36" type="curve" smooth="yes"/>
      <point x="544.322" y="688.14"/>
      <point x="457.642" y="747.7"/>
      <point x="304.428" y="747.7" type="curve" smooth="yes"/>
      <point x="105.82600000000001" y="747.7"/>
      <point x="46.763999999999996" y="666.14"/>
      <point x="46.763999999999996" y="533.16" type="curve" smooth="yes"/>
      <point x="46.763999999999996" y="102.5" type="line" smooth="yes"/>
      <point x="46.763999999999996" y="81.24000000000001"/>
      <point x="37.056" y="71.66"/>
      <point x="18.310000000000002" y="71.66" type="curve" smooth="yes"/>
      <point x="7.990000000000002" y="71.66" type="line"/>
    </contour>
  </outline>
</glyph>
<glyph name="eth" format="2">
  <advance width="566.728"/>
  <unicode hex="00F0"/>
  <outline>
    <contour>
      <point x="353.522" y="414.16" type="curve"/>
      <point x="328.528" y="486.72"/>
      <point x="303.81600000000003" y="523.16"/>
      <point x="220.16" y="523.16" type="curve" smooth="yes"/>
      <point x="101.79" y="523.16"/>
      <point x="15.391999999999998" y="414.72"/>
      <point x="15.391999999999998" y="260.3" type="curve" smooth="yes"/>
      <point x="15.391999999999998" y="92.12"/>
      <point x="120.124" y="-10.0"/>
      <point x="284.988" y="-10.0" type="curve" smooth="yes"/>
      <point x="443.47400000000005" y="-10.0"/>
      <point x="551.242" y="107.98"/>
      <point x="551.242" y="294.86" type="curve" smooth="yes"/>
      <point x="551.242" y="474.54"/>
      <point x="468.57907547537604" y="650.4249027546138"/>
      <point x="167.806" y="740.82" type="curve"/>
      <point x="131.668" y="673.02" type="line"/>
      <point x="297.438432458694" y="613.849318200429"/>
      <point x="319.302" y="461.22"/>
      <point x="319.302" y="292.28" type="curve" smooth="yes"/>
      <point x="319.302" y="132.96"/>
      <point x="311.112" y="79.68"/>
      <point x="284.988" y="79.68" type="curve" smooth="yes"/>
      <point x="264.524" y="79.68"/>
      <point x="250.06199999999998" y="122.4"/>
      <point x="250.06199999999998" y="260.3" type="curve" smooth="yes"/>
      <point x="250.06199999999998" y="367.1"/>
      <point x="253.592" y="433.48"/>
      <point x="287.706" y="433.48" type="curve" smooth="yes"/>
      <point x="313.454" y="433.48"/>
      <point x="328.728" y="399.5"/>
      <point x="344.544" y="335.68" type="curve"/>
      <point x="373.104" y="366.4"/>
      <point x="381.633933906352" y="399.5633297208662"/>
    </contour>
    <contour>
      <point x="110.698" y="585.44" type="line"/>
      <point x="133.28" y="530.28" type="line"/>
      <point x="425.764" y="681.84" type="line"/>
      <point x="403.182" y="737.0" type="line"/>
    </contour>
  </outline>
</glyph>
<glyph name="eogonek" format="2">
  <advance width="522.588"/>
  <unicode hex="0119"/>
  <outline>
    <contour>
      <point x="411.054" y="43.019999999999996" type="line"/>
      <point x="257.722" y="-7.960000000000001"/>
      <point x="184.822" y="-56.36"/>
      <point x="184.822" y="-138.12" type="curve" smooth="yes"/>
      <point x="184.822" y="-208.02"/>
      <point x="235.64600000000002" y="-244.6"/>
      <point x="313.23" y="-244.6" type="curve" smooth="yes"/>
      <point x="387.76599999999996" y="-244.6"/>
      <point x="430.024" y="-214.42"/>
      <point x="462.302" y="-169.36" type="curve"/>
      <point x="419.15" y="-119.88" type="line"/>
      <point x="410.972" y="-129.3"/>
      <point x="396.992" y="-147.88"/>
      <point x="374.516" y="-147.88" type="curve" smooth="yes"/>
      <point x="355.27599999999995" y="-147.88"/>
      <point x="344.13199999999995" y="-134.6"/>
      <point x="344.13199999999995" y="-106.75999999999999" type="curve" smooth="yes"/>
      <point x="344.13199999999995" y="-66.82"/>
      <point x="363.572" y="-31.4"/>
      <point x="428.48199999999997" y="32.3" type="curve" smooth="yes"/>
      <point x="456.13599999999997" y="59.44"/>
      <point x="477.38800000000003" y="84.16"/>
      <point x="495.44" y="124.2" type="curve"/>
      <point x="426.07" y="172.22" type="line"/>
      <point x="407.736" y="128.8"/>
      <point x="378.164" y="83.98"/>
      <point x="328.64599999999996" y="83.98" type="curve" smooth="yes"/>
      <point x="255.534" y="83.98"/>
      <point x="245.69600000000003" y="144.22"/>
      <point x="245.69600000000003" y="255.16" type="curve" smooth="yes"/>
      <point x="245.69600000000003" y="386.88"/>
      <point x="254.07399999999998" y="433.48"/>
      <point x="274.868" y="433.48" type="curve" smooth="yes"/>
      <point x="295.414" y="433.48"/>
      <point x="301.51" y="401.44"/>
      <point x="303.604" y="268.44" type="curve"/>
      <point x="317.702" y="302.48" type="line"/>
      <point x="122.64200000000001" y="302.48" type="line"/>
      <point x="122.442" y="221.54" type="line"/>
      <point x="508.914" y="221.54" type="line"/>
      <point x="508.384" y="423.0"/>
      <point x="424.85799999999995" y="523.16"/>
      <point x="268.796" y="523.16" type="curve" smooth="yes"/>
      <point x="119.818" y="523.16"/>
      <point x="15.391999999999998" y="416.74"/>
      <point x="15.391999999999998" y="255.44" type="curve" smooth="yes"/>
      <point x="15.391999999999998" y="91.14"/>
      <point x="112.73400000000001" y="-10.0"/>
      <point x="283.976" y="-10.0" type="curve" smooth="yes"/>
      <point x="333.61199999999997" y="-10.0"/>
      <point x="374.422" y="-0.41999999999999993"/>
      <point x="406.83" y="16.74" type="curve"/>
    </contour>
  </outline>
</glyph>
<glyph name="hbar" format="2">
  <advance width="576.848"/>
  <unicode hex="0127"/>
  <outline>
    <contour>
      <point x="573.424" y="0.0" type="line"/>
      <point x="573.424" y="71.66" type="line"/>
      <point x="571.894" y="71.66" type="line" smooth="yes"/>
      <point x="561.5740000000001" y="71.66"/>
      <point x="553.466" y="77.80000000000001"/>
      <point x="553.466" y="99.06" type="curve"/>
      <point x="553.466" y="344.96" type="line" smooth="yes"/>
      <point x="553.466" y="461.12"/>
      <point x="494.204" y="523.16"/>
      <point x="402.77" y="523.16" type="curve" smooth="yes"/>
      <point x="329.964" y="523.16"/>
      <point x="274.02000000000004" y="474.76"/>
      <point x="255.30999999999997" y="404.2" type="curve"/>
      <point x="261.288" y="325.02" type="line"/>
      <point x="270.102" y="375.32"/>
      <point x="284.36400000000003" y="406.84000000000003"/>
      <point x="301.804" y="406.84000000000003" type="curve" smooth="yes"/>
      <point x="318.396" y="406.84000000000003"/>
      <point x="322.856" y="389.18"/>
      <point x="322.856" y="352.02" type="curve" smooth="yes"/>
      <point x="322.856" y="79.94" type="line" smooth="yes"/>
      <point x="322.856" y="73.80000000000001"/>
      <point x="313.336" y="71.66"/>
      <point x="305.852" y="71.66" type="curve" smooth="yes"/>
      <point x="305.522" y="71.66" type="line"/>
      <point x="305.522" y="0.0" type="line"/>
    </contour>
    <contour>
      <point x="29.290000000000006" y="735.0" type="line"/>
      <point x="29.290000000000006" y="99.06" type="line"/>
      <point x="29.290000000000006" y="77.80000000000001"/>
      <point x="20.546" y="71.66"/>
      <point x="10.332" y="71.66" type="curve" smooth="yes"/>
      <point x="9.437999999999999" y="71.66" type="line"/>
      <point x="9.437999999999999" y="0.0" type="line"/>
      <point x="277.704" y="0.0" type="line"/>
      <point x="277.704" y="71.66" type="line"/>
      <point x="275.174" y="71.66" type="line" smooth="yes"/>
      <point x="270.18399999999997" y="71.66"/>
      <point x="260.46400000000006" y="73.80000000000001"/>
      <point x="260.46400000000006" y="79.94" type="curve"/>
      <point x="260.46400000000006" y="735.0" type="line"/>
    </contour>
    <contour>
      <point x="374.186" y="653.64" type="line"/>
      <point x="3.0360000000000014" y="653.64" type="line"/>
      <point x="3.0360000000000014" y="564.66" type="line"/>
      <point x="374.186" y="564.66" type="line"/>
    </contour>
  </outline>
</glyph>
<glyph name="Uogonek" format="2">
  <advance width="610.068"/>
  <unicode hex="0172"/>
  <outline>
    <contour>
      <point x="377.74" y="-244.6" type="curve" smooth="yes"/>
      <point x="452.37" y="-244.6"/>
      <point x="494.62800000000004" y="-214.42"/>
      <point x="526.906" y="-169.36" type="curve"/>
      <point x="483.19" y="-119.88" type="line"/>
      <point x="475.576" y="-129.3"/>
      <point x="461.596" y="-147.88"/>
      <point x="439.12" y="-147.88" type="curve" smooth="yes"/>
      <point x="419.88" y="-147.88"/>
      <point x="408.736" y="-134.6"/>
      <point x="408.736" y="-106.75999999999999" type="curve" smooth="yes"/>
      <point x="408.736" y="-62.3"/>
      <point x="414.996" y="-13.979999999999997"/>
      <point x="491.062" y="59.0" type="curve" smooth="yes"/>
      <point x="537.556" y="109.16"/>
      <point x="560.4200000000001" y="180.02"/>
      <point x="560.4200000000001" y="278.74" type="curve" smooth="yes"/>
      <point x="560.4200000000001" y="595.5" type="line" smooth="yes"/>
      <point x="560.4200000000001" y="625.2"/>
      <point x="572.0" y="632.9"/>
      <point x="588.816" y="632.9" type="curve" smooth="yes"/>
      <point x="597.206" y="632.9" type="line"/>
      <point x="597.206" y="710.0" type="line"/>
      <point x="435.39" y="710.0" type="line"/>
      <point x="435.39" y="632.9" type="line"/>
      <point x="442.438" y="632.9" type="line" smooth="yes"/>
      <point x="456.112" y="632.9"/>
      <point x="471.634" y="626.62"/>
      <point x="471.634" y="612.62" type="curve" smooth="yes"/>
      <point x="471.634" y="278.74" type="line" smooth="yes"/>
      <point x="471.634" y="148.84"/>
      <point x="439.72" y="95.98"/>
      <point x="382.106" y="95.98" type="curve" smooth="yes"/>
      <point x="316.36" y="95.98"/>
      <point x="294.826" y="144.54"/>
      <point x="294.826" y="278.74" type="curve" smooth="yes"/>
      <point x="294.826" y="622.9" type="line" smooth="yes"/>
      <point x="294.826" y="629.9"/>
      <point x="310.91200000000003" y="632.9"/>
      <point x="323.48" y="632.9" type="curve" smooth="yes"/>
      <point x="331.07000000000005" y="632.9" type="line"/>
      <point x="331.07000000000005" y="710.0" type="line"/>
      <point x="12.862000000000002" y="710.0" type="line"/>
      <point x="12.862000000000002" y="632.9" type="line"/>
      <point x="21.346000000000004" y="632.9" type="line" smooth="yes"/>
      <point x="38.068" y="632.9"/>
      <point x="49.742" y="625.9"/>
      <point x="49.742" y="596.9" type="curve" smooth="yes"/>
      <point x="49.742" y="278.74" type="line" smooth="yes"/>
      <point x="49.742" y="76.16"/>
      <point x="151.014" y="-10.0"/>
      <point x="317.702" y="-10.0" type="curve" smooth="yes"/>
      <point x="352.31" y="-10.0"/>
      <point x="385.118" y="-3.7199999999999998"/>
      <point x="413.608" y="9.26" type="curve"/>
      <point x="456.724" y="51.879999999999995" type="line"/>
      <point x="320.75" y="-6.800000000000001"/>
      <point x="249.426" y="-53.78"/>
      <point x="249.426" y="-139.84" type="curve" smooth="yes"/>
      <point x="249.426" y="-208.02"/>
      <point x="300.156" y="-244.6"/>
    </contour>
  </outline>
</glyph>
<glyph name="Schwa" format="2">
  <advance width="657.232"/>
  <unicode hex="018F"/>
  <outline>
    <contour>
      <point x="309.994" y="720.0" type="curve" smooth="yes"/>
      <point x="162.864" y="720.0"/>
      <point x="80.196" y="639.12"/>
      <point x="35.326" y="537.22" type="curve"/>
      <point x="109.156" y="483.6" type="line"/>
      <point x="140.176" y="551.3199999999999"/>
      <point x="188.482" y="625.6"/>
      <point x="267.36" y="625.6" type="curve" smooth="yes"/>
      <point x="361.05400000000003" y="625.6"/>
      <point x="382.494" y="532.9285463087328"/>
      <point x="382.494" y="356.86" type="curve" smooth="yes"/>
      <point x="382.494" y="155.1310013698498"/>
      <point x="368.13800000000003" y="84.4"/>
      <point x="331.07" y="84.4" type="curve" smooth="yes"/>
      <point x="295.896" y="84.4"/>
      <point x="283.32381510168" y="133.6453754126894"/>
      <point x="280.81" y="336.42" type="curve"/>
      <point x="253.71" y="310.98" type="line"/>
      <point x="520.552" y="310.98" type="line"/>
      <point x="519.022" y="399.36" type="line"/>
      <point x="20.064" y="399.36" type="line"/>
      <point x="21.1568929671958" y="125.7642197215764"/>
      <point x="125.78399999999999" y="-10.0"/>
      <point x="331.07" y="-10.0" type="curve" smooth="yes"/>
      <point x="506.45399999999995" y="-10.0"/>
      <point x="636.51" y="139.2530923076654"/>
      <point x="636.51" y="357.14" type="curve" smooth="yes"/>
      <point x="636.51" y="579.9667519125456"/>
      <point x="518.328" y="720.0"/>
    </contour>
  </outline>
</glyph>
<glyph name="Ohorn" format="2">
  <advance width="697.866"/>
  <unicode hex="01A0"/>
  <anchor x="330.67" y="742.0" name="top"/>
  <outline>
    <contour>
      <point x="439.52" y="660.22" type="curve"/>
      <point x="619.682" y="643.92"/>
      <point x="707.986" y="699.2"/>
      <point x="706.774" y="877.0" type="curve"/>
      <point x="555.76" y="877.0" type="line"/>
      <point x="554.478" y="767.6"/>
      <point x="503.336" y="720.0"/>
      <point x="330.67" y="720.0" type="curve"/>
      <point x="378.07" y="708.42"/>
      <point x="405.712" y="674.8"/>
    </contour>
    <contour>
      <point x="342.178" y="-10.0" type="curve" smooth="yes"/>
      <point x="533.508" y="-10.0"/>
      <point x="663.434" y="133.84"/>
      <point x="663.434" y="355.0" type="curve" smooth="yes"/>
      <point x="663.434" y="525.6"/>
      <point x="587.4739999999999" y="645.86"/>
      <point x="461.09000000000003" y="682.56" type="curve"/>
      <point x="429.494" y="711.86"/>
      <point x="388.87199999999996" y="720.0"/>
      <point x="342.178" y="720.0" type="curve" smooth="yes"/>
      <point x="150.084" y="720.0"/>
      <point x="20.064" y="575.44"/>
      <point x="20.064" y="355.0" type="curve" smooth="yes"/>
      <point x="20.064" y="133.84"/>
      <point x="150.084" y="-10.0"/>
    </contour>
    <contour>
      <point x="342.178" y="84.39999999999999" type="curve" smooth="yes"/>
      <point x="297.956" y="84.39999999999999"/>
      <point x="274.738" y="177.46"/>
      <point x="274.738" y="355.0" type="curve" smooth="yes"/>
      <point x="274.738" y="532.54"/>
      <point x="297.956" y="625.6"/>
      <point x="342.178" y="625.6" type="curve" smooth="yes"/>
      <point x="385.836" y="625.6"/>
      <point x="408.85400000000004" y="532.54"/>
      <point x="408.85400000000004" y="355.0" type="curve" smooth="yes"/>
      <point x="408.85400000000004" y="177.46"/>
      <point x="385.836" y="84.39999999999999"/>
    </contour>
  </outline>
</glyph>
<glyph name="uhorn" format="2">
  <advance width="628.602"/>
  <unicode hex="01B0"/>
  <anchor x="240.53" y="545.0" name="top"/>
  <outline>
    <contour>
      <point x="259.064" y="513.16" type="line"/>
      <point x="8.802" y="513.16" type="line"/>
      <point x="8.802" y="437.64" type="line"/>
      <point x="13.486" y="435.64" type="line" smooth="yes"/>
      <point x="25.03" y="429.36"/>
      <point x="28.454" y="424.8"/>
      <point x="28.454" y="406.98" type="curve" smooth="yes"/>
      <point x="28.454" y="168.2" type="line" smooth="yes"/>
      <point x="28.454" y="52.04"/>
      <point x="86.88" y="-10.0"/>
      <point x="177.514" y="-10.0" type="curve" smooth="yes"/>
      <point x="251.062" y="-10.0"/>
      <point x="318.07800000000003" y="39.26"/>
      <point x="341.096" y="143.36" type="curve"/>
      <point x="316.902" y="188.28" type="line"/>
      <point x="308.088" y="137.84"/>
      <point x="296.026" y="106.32000000000001"/>
      <point x="278.916" y="106.32000000000001" type="curve" smooth="yes"/>
      <point x="264.724" y="106.32000000000001"/>
      <point x="259.064" y="125.69999999999999"/>
      <point x="259.064" y="165.58" type="curve" smooth="yes"/>
    </contour>
    <contour>
      <point x="549.0060000000001" y="511.06" type="line"/>
      <point x="477.082" y="490.72"/>
      <point x="467.586" y="494.18"/>
      <point x="415.31399999999996" y="465.56" type="curve"/>
      <point x="603.572" y="466.7"/>
      <point x="655.926" y="517.42"/>
      <point x="655.9259999999999" y="680.0" type="curve"/>
      <point x="508.87800000000004" y="680.0" type="line"/>
      <point x="506.478" y="544.86"/>
      <point x="471.422" y="513.16"/>
      <point x="372.868" y="513.16" type="curve" smooth="yes"/>
      <point x="284.38800000000003" y="513.16" type="line"/>
      <point x="284.38800000000003" y="437.64" type="line"/>
      <point x="291.048" y="435.64" type="line" smooth="yes"/>
      <point x="302.392" y="431.5"/>
      <point x="318.396" y="424.8"/>
      <point x="318.396" y="406.98" type="curve" smooth="yes"/>
      <point x="318.396" y="108.4" type="line"/>
      <point x="330.858" y="119.48" type="line"/>
      <point x="330.858" y="0.0" type="line"/>
      <point x="568.658" y="0.0" type="line"/>
      <point x="568.658" y="75.1" type="line"/>
      <point x="562.456" y="76.82" type="line" smooth="yes"/>
      <point x="550.5" y="81.98"/>
      <point x="549.0060000000001" y="86.4"/>
      <point x="549.0060000000001" y="104.22" type="curve" smooth="yes"/>
    </contour>
  </outline>
</glyph>
<glyph name="breve" format="2">
  <advance width="417.28000000000003"/>
  <unicode hex="02D8"/>
  <anchor x="208.64" y="517.0" name="_top"/>
  <outline>
    <contour>
      <point x="208.64" y="558.36" type="curve" smooth="yes"/>
      <point x="115.73400000000001" y="558.36"/>
      <point x="51.55399999999999" y="621.12"/>
      <point x="55.402" y="748.04" type="curve"/>
      <point x="152.90800000000002" y="748.04" type="line"/>
      <point x="158.498" y="698.1"/>
      <point x="176.832" y="686.7"/>
      <point x="211.17000000000002" y="686.7" type="curve" smooth="yes"/>
      <point x="245.978" y="686.7"/>
      <point x="263.312" y="698.1"/>
      <point x="269.466" y="748.04" type="curve"/>
      <point x="362.348" y="748.04" type="line"/>
      <point x="366.196" y="621.12"/>
      <point x="301.38" y="558.36"/>
    </contour>
  </outline>
</glyph>
<glyph name="daggerdbl" format="2">
  <advance width="487.932"/>
  <unicode hex="2021"/>
  <outline>
    <contour>
      <point x="200.12" y="491.66" type="line"/>
      <point x="287.812" y="491.66" type="line"/>
      <point x="432.92999999999995" y="430.22" type="line"/>
      <point x="468.068" y="430.22" type="line"/>
      <point x="468.068" y="600.6800000000001" type="line"/>
      <point x="432.92999999999995" y="600.6800000000001" type="line"/>
      <point x="287.812" y="541.3" type="line"/>
      <point x="200.12" y="541.3" type="line"/>
      <point x="55.001999999999995" y="600.6800000000001" type="line"/>
      <point x="19.864" y="600.6800000000001" type="line"/>
      <point x="19.864" y="430.22" type="line"/>
      <point x="55.001999999999995" y="430.22" type="line"/>
    </contour>
    <contour>
      <point x="200.12" y="218.34" type="line"/>
      <point x="55.001999999999995" y="279.78" type="line"/>
      <point x="19.864" y="279.78" type="line"/>
      <point x="19.864" y="109.32" type="line"/>
      <point x="55.001999999999995" y="109.32" type="line"/>
      <point x="200.12" y="168.7" type="line"/>
      <point x="287.812" y="168.7" type="line"/>
      <point x="432.92999999999995" y="109.32" type="line"/>
      <point x="468.068" y="109.32" type="line"/>
      <point x="468.068" y="279.78" type="line"/>
      <point x="432.92999999999995" y="279.78" type="line"/>
      <point x="287.812" y="218.34" type="line"/>
    </contour>
    <contour>
      <point x="83.256" y="323.54" type="line"/>
      <point x="156.85" y="293.86"/>
      <point x="200.002" y="259.58"/>
      <point x="200.002" y="201.9" type="curve"/>
      <point x="200.002" y="144.92"/>
      <point x="112.31" y="70.0"/>
      <point x="112.31" y="35.0" type="curve" smooth="yes"/>
      <point x="112.31" y="0.0" type="line"/>
      <point x="375.622" y="0.0" type="line"/>
      <point x="375.622" y="35.0" type="line" smooth="yes"/>
      <point x="375.622" y="70.0"/>
      <point x="287.93" y="144.92"/>
      <point x="287.93" y="201.9" type="curve"/>
      <point x="287.93" y="259.58"/>
      <point x="331.082" y="293.86"/>
      <point x="404.676" y="323.54" type="curve"/>
      <point x="404.676" y="386.46" type="line"/>
      <point x="331.082" y="416.14"/>
      <point x="287.93" y="450.42"/>
      <point x="287.93" y="508.1" type="curve"/>
      <point x="287.93" y="565.08"/>
      <point x="375.622" y="640.0"/>
      <point x="375.622" y="675.0" type="curve" smooth="yes"/>
      <point x="375.622" y="710.0" type="line"/>
      <point x="112.31" y="710.0" type="line"/>
      <point x="112.31" y="675.0" type="line" smooth="yes"/>
      <point x="112.31" y="640.0"/>
      <point x="200.002" y="565.08"/>
      <point x="200.002" y="508.1" type="curve"/>
      <point x="200.002" y="450.42"/>
      <point x="156.85" y="416.14"/>
      <point x="83.256" y="386.46" type="curve"/>
    </contour>
  </outline>
</glyph>
<glyph name="minute" format="2">
  <advance width="218.172"/>
  <unicode hex="2032"/>
  <outline>
    <contour>
      <point x="200.74400000000003" y="710.0" type="line"/>
      <point x="189.48199999999997" y="607.24"/>
      <point x="160.31" y="578.54"/>
      <point x="144.094" y="445.76" type="curve"/>
      <point x="34.855999999999995" y="445.76" type="line"/>
      <point x="52.542" y="596.94"/>
      <point x="33.714000000000006" y="629.5"/>
      <point x="47.376000000000005" y="710.0" type="curve"/>
    </contour>
  </outline>
</glyph>
<glyph name="emptyset" format="2">
  <advance width="580.92"/>
  <unicode hex="2205"/>
  <outline>
    <contour>
      <point x="54.99" y="270.0" type="curve" smooth="yes"/>
      <point x="54.99" y="110.0"/>
      <point x="160.84" y="-10.0"/>
      <point x="290.46" y="-10.0" type="curve" smooth="yes"/>
      <point x="420.08" y="-10.0"/>
      <point x="526.494" y="110.0"/>
      <point x="526.494" y="270.0" type="curve" smooth="yes"/>
      <point x="526.494" y="430.0"/>
      <point x="420.08" y="550.0"/>
      <point x="290.46" y="550.0" type="curve" smooth="yes"/>
      <point x="160.84" y="550.0"/>
      <point x="54.99" y="430.0"/>
    </contour>
    <contour>
      <point x="510.738" y="591.16" type="line"/>
      <point x="26.148" y="-3.84" type="line"/>
      <point x="70.182" y="-51.16" type="line"/>
      <point x="554.7719999999999" y="543.84" type="line"/>
    </contour>
    <contour>
      <point x="290.46" y="61.48" type="curve" smooth="yes"/>
      <point x="200.32" y="61.48"/>
      <point x="125.37199999999999" y="148.32"/>
      <point x="125.37199999999999" y="270.0" type="curve" smooth="yes"/>
      <point x="125.37199999999999" y="391.5088625000106"/>
      <point x="199.814" y="478.65999999999997"/>
      <point x="290.46" y="478.65999999999997" type="curve" smooth="yes"/>
      <point x="384.73" y="478.65999999999997"/>
      <point x="456.112" y="392.6495249999788"/>
      <point x="456.112" y="270.0" type="curve" smooth="yes"/>
      <point x="456.112" y="147.74"/>
      <point x="385.236" y="61.48"/>
    </contour>
  </outline>
</glyph>
<glyph name="integral" format="2">
  <advance width="614.504"/>
  <unicode hex="222B"/>
  <outline>
    <contour>
      <point x="397.39200000000005" y="-3.6400000000000006" type="curve" smooth="yes"/>
      <point x="407.924" y="504.64" type="line" smooth="yes"/>
      <point x="411.677627645496" y="622.2831311517726"/>
      <point x="421.892" y="648.6"/>
      <point x="451.476" y="648.6" type="curve" smooth="yes"/>
      <point x="473.25800000000004" y="648.6"/>
      <point x="490.96799999999996" y="631.3"/>
      <point x="497.44000000000005" y="604.56" type="curve"/>
      <point x="519.528" y="619.16"/>
      <point x="499.08799999999997" y="657.2"/>
      <point x="475.352" y="656.2" type="curve"/>
      <point x="475.352" y="570.6" type="line"/>
      <point x="607.656" y="570.6" type="line"/>
      <point x="607.656" y="690.94" type="line"/>
      <point x="591.84" y="705.38"/>
      <point x="532.908" y="737.0"/>
      <point x="430.22400000000005" y="737.0" type="curve" smooth="yes"/>
      <point x="279.504" y="737.0"/>
      <point x="183.01" y="655.34"/>
      <point x="178.75" y="504.64" type="curve" smooth="yes"/>
      <point x="168.312" y="-3.6400000000000006" type="line" smooth="yes"/>
      <point x="164.558373520928" y="-121.28315599586179"/>
      <point x="154.25" y="-147.6"/>
      <point x="124.75999999999999" y="-147.6" type="curve" smooth="yes"/>
      <point x="102.978" y="-147.6"/>
      <point x="85.17399999999999" y="-130.3"/>
      <point x="78.79599999999999" y="-103.56" type="curve"/>
      <point x="56.70799999999999" y="-118.16"/>
      <point x="77.148" y="-156.2"/>
      <point x="100.88400000000001" y="-155.2" type="curve"/>
      <point x="100.88400000000001" y="-69.6" type="line"/>
      <point x="-31.983999999999995" y="-69.6" type="line"/>
      <point x="-31.983999999999995" y="-189.94" type="line"/>
      <point x="-15.604" y="-204.38"/>
      <point x="43.234" y="-236.0"/>
      <point x="146.012" y="-236.0" type="curve" smooth="yes"/>
      <point x="296.73199999999997" y="-236.0"/>
      <point x="393.226" y="-154.34"/>
    </contour>
  </outline>
</glyph>
<glyph name="approxequal" format="2">
  <advance width="467.88"/>
  <unicode hex="2248"/>
  <outline>
    <contour>
      <point x="307.86400000000003" y="330.48" type="curve" smooth="yes"/>
      <point x="386.342" y="330.48"/>
      <point x="428.56399999999996" y="423.44"/>
      <point x="453.92400000000004" y="532.7" type="curve"/>
      <point x="355.04" y="560.16" type="line"/>
      <point x="348.568" y="525.74"/>
      <point x="337.048" y="483.46"/>
      <point x="304.334" y="483.46" type="curve" smooth="yes"/>
      <point x="264.748" y="483.46"/>
      <point x="234.752" y="558.76"/>
      <point x="160.64" y="558.76" type="curve" smooth="yes"/>
      <point x="71.806" y="558.76"/>
      <point x="36.35" y="474.96000000000004"/>
      <point x="14.392000000000003" y="360.84" type="curve"/>
      <point x="114.934" y="333.38" type="line"/>
      <point x="120.324" y="364.78"/>
      <point x="128.808" y="405.92"/>
      <point x="158.68599999999998" y="405.92" type="curve" smooth="yes"/>
      <point x="196.354" y="405.92"/>
      <point x="230.598" y="330.48"/>
    </contour>
    <contour>
      <point x="307.86400000000003" y="71.16" type="curve" smooth="yes"/>
      <point x="386.342" y="71.16"/>
      <point x="428.56399999999996" y="164.98"/>
      <point x="453.92400000000004" y="273.38" type="curve"/>
      <point x="355.04" y="300.98" type="line"/>
      <point x="347.862" y="266.42"/>
      <point x="337.048" y="224.14"/>
      <point x="304.334" y="224.14" type="curve" smooth="yes"/>
      <point x="264.748" y="224.14"/>
      <point x="234.752" y="299.44"/>
      <point x="160.64" y="299.44" type="curve" smooth="yes"/>
      <point x="71.806" y="299.44"/>
      <point x="36.35" y="215.64"/>
      <point x="14.392000000000003" y="102.38" type="curve"/>
      <point x="114.934" y="74.2" type="line"/>
      <point x="120.324" y="106.32"/>
      <point x="128.808" y="147.45999999999998"/>
      <point x="158.68599999999998" y="147.45999999999998" type="curve" smooth="yes"/>
      <point x="196.354" y="147.45999999999998"/>
      <point x="230.598" y="71.16"/>
    </contour>
  </outline>
</glyph>
<glyph name="hook" format="2">
  <advance width="425.87"/>
  <unicode hex="2440"/>
  <anchor x="195.46" y="517.0" name="_top"/>
  <outline>
    <contour>
      <point x="50.612" y="686.26" type="line"/>
      <point x="54.77799999999999" y="740.86"/>
      <point x="90.34" y="793.48"/>
      <point x="190.588" y="793.48" type="curve" smooth="yes"/>
      <point x="278.598" y="793.48"/>
      <point x="322.856" y="755.46"/>
      <point x="322.856" y="694.86" type="curve" smooth="yes"/>
      <point x="322.856" y="624.4"/>
      <point x="271.526" y="596.82"/>
      <point x="179.068" y="589.1" type="curve"/>
      <point x="224.514" y="626.56" type="line"/>
      <point x="224.514" y="556.82" type="line"/>
      <point x="133.574" y="556.82" type="line"/>
      <point x="133.574" y="636.42" type="line"/>
      <point x="186.752" y="642.0"/>
      <point x="205.99200000000002" y="657.56"/>
      <point x="205.99200000000002" y="685.98" type="curve" smooth="yes"/>
      <point x="205.99200000000002" y="704.82"/>
      <point x="197.178" y="718.96"/>
      <point x="180.48" y="718.96" type="curve" smooth="yes"/>
      <point x="161.416" y="718.96"/>
      <point x="151.40200000000002" y="706.4"/>
      <point x="148.872" y="686.26" type="curve"/>
    </contour>
  </outline>
</glyph>
<glyph name="f_f_l" format="2">
  <advance width="904.846"/>
  <unicode hex="FB04"/>
  <outline>
    <contour>
      <point x="-6.378" y="513.16" type="line"/>
      <point x="-6.378" y="432.08" type="line"/>
      <point x="349.498" y="432.08" type="line"/>
      <point x="349.498" y="513.16" type="line"/>
    </contour>
    <contour>
      <point x="292.178" y="513.16" type="line"/>
      <point x="292.178" y="432.08" type="line"/>
      <point x="622.436" y="432.08" type="line"/>
      <point x="622.436" y="513.16" type="line"/>
    </contour>
    <contour>
      <point x="300.568" y="0.0" type="line"/>
      <point x="300.568" y="71.66" type="line"/>
      <point x="298.038" y="71.66" type="line" smooth="yes"/>
      <point x="283.846" y="71.66"/>
      <point x="277.374" y="73.80000000000001"/>
      <point x="277.374" y="79.94" type="curve"/>
      <point x="277.374" y="575.92" type="line" smooth="yes"/>
      <point x="277.374" y="632.34"/>
      <point x="287.706" y="648.46"/>
      <point x="307.852" y="648.46" type="curve" smooth="yes"/>
      <point x="317.608" y="648.46"/>
      <point x="331.47" y="642.04"/>
      <point x="329.964" y="640.06" type="curve"/>
      <point x="329.964" y="724.56" type="line"/>
      <point x="320.02" y="730.56"/>
      <point x="289.212" y="737.14"/>
      <point x="250.53199999999998" y="737.14" type="curve" smooth="yes"/>
      <point x="139.54" y="737.14"/>
      <point x="47.400000000000006" y="684.82"/>
      <point x="47.400000000000006" y="532.06" type="curve" smooth="yes"/>
      <point x="47.400000000000006" y="102.5" type="line"/>
      <point x="47.400000000000006" y="81.24000000000001"/>
      <point x="37.692" y="71.66"/>
      <point x="18.945999999999998" y="71.66" type="curve" smooth="yes"/>
      <point x="8.625999999999998" y="71.66" type="line"/>
      <point x="8.625999999999998" y="0.0" type="line"/>
    </contour>
    <contour>
      <point x="593.558" y="0.0" type="line"/>
      <point x="593.558" y="71.66" type="line"/>
      <point x="592.746" y="71.66" type="line" smooth="yes"/>
      <point x="584.932" y="71.66"/>
      <point x="575.9300000000001" y="73.80000000000001"/>
      <point x="575.9300000000001" y="79.94" type="curve"/>
      <point x="575.9300000000001" y="574.44" type="line" smooth="yes"/>
      <point x="575.9300000000001" y="636.02"/>
      <point x="588.616" y="659.02"/>
      <point x="620.012" y="659.02" type="curve" smooth="yes"/>
      <point x="653.514" y="659.02"/>
      <point x="674.472" y="633.42"/>
      <point x="686.134" y="572.26" type="curve"/>
      <point x="790.76" y="694.7" type="line"/>
      <point x="747.0899999999999" y="722.4"/>
      <point x="688.876" y="747.7"/>
      <point x="594.146" y="747.7" type="curve" smooth="yes"/>
      <point x="460.102" y="747.7"/>
      <point x="345.956" y="695.38"/>
      <point x="345.956" y="542.62" type="curve"/>
      <point x="345.956" y="79.94" type="line"/>
      <point x="345.956" y="73.80000000000001"/>
      <point x="340.68399999999997" y="71.66"/>
      <point x="330.54" y="71.66" type="curve" smooth="yes"/>
      <point x="331.47" y="71.66" type="line"/>
      <point x="331.47" y="0.0" type="line"/>
    </contour>
    <contour>
      <point x="895.644" y="0.0" type="line"/>
      <point x="895.644" y="71.66" type="line"/>
      <point x="894.75" y="71.66" type="line" smooth="yes"/>
      <point x="884.6300000000001" y="71.66"/>
      <point x="875.686" y="77.80000000000001"/>
      <point x="875.686" y="99.06" type="curve"/>
      <point x="875.686" y="730.7" type="line"/>
      <point x="626.578" y="730.7" type="line"/>
      <point x="644.512" y="701.16" type="line"/>
      <point x="644.512" y="79.94" type="line"/>
      <point x="644.512" y="73.80000000000001"/>
      <point x="634.992" y="71.66"/>
      <point x="628.072" y="71.66" type="curve" smooth="yes"/>
      <point x="624.46" y="71.66" type="line"/>
      <point x="624.46" y="0.0" type="line"/>
    </contour>
  </outline>
</glyph>
<glyph name="baht" format="2">
  <advance width="467.88"/>
  <outline>
    <contour>
      <point x="194.66" y="790.0" type="line"/>
      <point x="194.66" y="676.0" type="line"/>
      <point x="216.406" y="660.0" type="line"/>
      <point x="216.406" y="46.0" type="line"/>
      <point x="194.66" y="36.0" type="line"/>
      <point x="194.66" y="-110.0" type="line"/>
      <point x="295.108" y="-110.0" type="line"/>
      <point x="295.108" y="38.0" type="line"/>
      <point x="272.726" y="50.0" type="line"/>
      <point x="272.726" y="662.0" type="line"/>
      <point x="295.108" y="673.0" type="line"/>
      <point x="295.108" y="790.0" type="line"/>
    </contour>
    <contour>
      <point x="293.70799999999997" y="708.6" type="curve" smooth="yes"/>
      <point x="10.05" y="708.6" type="line"/>
      <point x="10.05" y="631.5" type="line"/>
      <point x="18.534000000000002" y="631.5" type="line" smooth="yes"/>
      <point x="27.951142857115602" y="631.5"/>
      <point x="34.632000000000005" y="624.5"/>
      <point x="34.632000000000005" y="595.5" type="curve" smooth="yes"/>
      <point x="34.632000000000005" y="114.5" type="line" smooth="yes"/>
      <point x="34.632000000000005" y="85.5"/>
      <point x="27.951142857115602" y="78.5"/>
      <point x="18.534000000000002" y="78.5" type="curve" smooth="yes"/>
      <point x="10.05" y="78.5" type="line"/>
      <point x="10.05" y="1.4000000000000001" type="line"/>
      <point x="287.212" y="1.4000000000000001" type="line" smooth="yes"/>
      <point x="412.69314285705195" y="1.4000000000000001"/>
      <point x="470.21000000000004" y="76.68"/>
      <point x="470.21000000000004" y="201.54" type="curve" smooth="yes"/>
      <point x="470.21000000000004" y="318.0"/>
      <point x="408.322586416772" y="373.9245138332096"/>
      <point x="332.694" y="379.98" type="curve"/>
      <point x="342.68399999999997" y="371.6" type="line"/>
      <point x="408.736" y="376.76"/>
      <point x="463.23199999999997" y="426.56"/>
      <point x="463.23199999999997" y="539.46" type="curve" smooth="yes"/>
      <point x="463.23199999999997" y="644.46"/>
      <point x="410.13599999999997" y="708.6"/>
    </contour>
    <contour>
      <point x="236.364" y="411.04" type="curve" smooth="yes"/>
      <point x="192.812" y="411.04" type="line"/>
      <point x="192.812" y="625.94" type="line"/>
      <point x="257.228" y="625.94" type="line"/>
      <point x="290.154" y="625.94"/>
      <point x="305.252" y="590.24"/>
      <point x="305.252" y="525.0" type="curve" smooth="yes"/>
      <point x="305.252" y="450.26"/>
      <point x="293.096" y="411.04"/>
    </contour>
    <contour>
      <point x="233.752" y="329.52" type="line" smooth="yes"/>
      <point x="292.896" y="329.52"/>
      <point x="307.664" y="286.0"/>
      <point x="307.664" y="211.28" type="curve" smooth="yes"/>
      <point x="307.664" y="123.16"/>
      <point x="285.50600000000003" y="83.91999999999999"/>
      <point x="244.76600000000002" y="83.91999999999999" type="curve" smooth="yes"/>
      <point x="192.812" y="83.91999999999999" type="line"/>
      <point x="192.812" y="329.52" type="line"/>
    </contour>
  </outline>
</glyph>
<glyph name="bar.uc" format="2">
  <advance width="254.556"/>
  <outline>
    <contour>
      <point x="57.92000000000001" y="741.4" type="line"/>
      <point x="57.92000000000001" y="-34.84" type="line"/>
      <point x="196.072" y="-34.84" type="line"/>
      <point x="196.072" y="741.4" type="line"/>
    </contour>
  </outline>
</glyph>
<glyph name="circumflex_hook.uc" format="2">
  <advance width="425.776"/>
  <anchor x="204.58" y="694.0" name="_top"/>
  <outline>
    <contour>
      <point x="320.432" y="940.0" type="line"/>
      <point x="324.162" y="982.72"/>
      <point x="353.852" y="1024.32"/>
      <point x="441.23799999999994" y="1024.32" type="curve" smooth="yes"/>
      <point x="517.116" y="1024.32"/>
      <point x="556.502" y="994.74"/>
      <point x="556.502" y="946.3" type="curve" smooth="yes"/>
      <point x="556.502" y="890.72"/>
      <point x="516.916" y="868.72"/>
      <point x="453.512" y="863.0" type="curve"/>
      <point x="476.494" y="889.72" type="line"/>
      <point x="476.494" y="839.58" type="line"/>
      <point x="392.13199999999995" y="839.58" type="line"/>
      <point x="392.13199999999995" y="900.3" type="line"/>
      <point x="435.378" y="903.16"/>
      <point x="451.88800000000003" y="916.58"/>
      <point x="451.88800000000003" y="940.86" type="curve"/>
      <point x="451.88800000000003" y="956.56"/>
      <point x="447.20399999999995" y="965.98"/>
      <point x="432.3299999999999" y="965.98" type="curve" smooth="yes"/>
      <point x="420.162" y="965.98"/>
      <point x="411.678" y="956.42"/>
      <point x="409.148" y="940.0" type="curve"/>
    </contour>
    <component base="circumflex.uc" xOffset="-57.81"/>
  </outline>
</glyph>
<glyph name="circumflex_tilde.uc" format="2">
  <advance width="417.844"/>
  <anchor x="203.05" y="694.0" name="_top"/>
  <outline>
    <contour>
      <point x="300.568" y="892.24" type="line"/>
      <point x="390.81399999999996" y="776.76" type="line"/>
      <point x="390.81399999999996" y="749.14" type="line"/>
      <point x="284.082" y="749.14" type="line"/>
      <point x="145.542" y="827.48" type="line"/>
      <point x="285.48199999999997" y="827.48" type="line"/>
      <point x="145.742" y="749.14" type="line"/>
      <point x="46.988" y="749.14" type="line"/>
      <point x="46.988" y="776.76" type="line"/>
      <point x="138.434" y="892.24" type="line"/>
    </contour>
    <contour>
      <point x="272.726" y="922.8" type="curve" smooth="yes"/>
      <point x="337.53" y="922.8"/>
      <point x="377.60596675220603" y="969.1514266689628"/>
      <point x="393.462" y="1052.38" type="curve"/>
      <point x="310.206" y="1082.56" type="line"/>
      <point x="302.48658548586" y="1052.3974160174255"/>
      <point x="293.296" y="1036.56"/>
      <point x="274.95" y="1036.56" type="curve" smooth="yes"/>
      <point x="244.49599999999998" y="1036.56"/>
      <point x="227.162" y="1081.0"/>
      <point x="162.534" y="1081.0" type="curve" smooth="yes"/>
      <point x="92.75200000000001" y="1081.0"/>
      <point x="58.17189773932" y="1035.364694753015"/>
      <point x="43.152" y="952.14" type="curve"/>
      <point x="126.608" y="923.82" type="line"/>
      <point x="132.594408094546" y="954.6662930435718"/>
      <point x="141.988" y="969.1"/>
      <point x="160.00400000000002" y="969.1" type="curve" smooth="yes"/>
      <point x="185.446" y="969.1"/>
      <point x="203.874" y="922.8"/>
    </contour>
  </outline>
</glyph>
<glyph name="dong.proportional" format="2">
  <advance width="585.45"/>
  <outline>
    <contour>
      <point x="257.33399999999995" y="248.28" type="curve" smooth="yes"/>
      <point x="257.33399999999995" y="352.2"/>
      <point x="264.748" y="416.28"/>
      <point x="292.19" y="416.28" type="curve" smooth="yes"/>
      <point x="322.032" y="416.28"/>
      <point x="326.798" y="368.56"/>
      <point x="340.19" y="304.4" type="curve"/>
      <point x="377.952" y="322.1" type="line"/>
      <point x="361.36" y="454.4"/>
      <point x="311.11199999999997" y="523.16"/>
      <point x="212.488" y="523.16" type="curve" smooth="yes"/>
      <point x="101.59" y="523.16"/>
      <point x="22.664" y="409.86"/>
      <point x="22.664" y="248.28" type="curve" smooth="yes"/>
      <point x="22.664" y="90.56"/>
      <point x="92.988" y="-13.44"/>
      <point x="205.592" y="-13.44" type="curve" smooth="yes"/>
      <point x="290.672" y="-13.44"/>
      <point x="326.61" y="44.980000000000004"/>
      <point x="365.372" y="159.08" type="curve"/>
      <point x="339.55400000000003" y="216.34" type="line"/>
      <point x="317.69" y="143.0"/>
      <point x="309.88800000000003" y="93.44"/>
      <point x="284.788" y="93.44" type="curve" smooth="yes"/>
      <point x="264.11199999999997" y="93.44"/>
      <point x="257.33399999999995" y="146.64"/>
    </contour>
    <contour>
      <point x="317.514" y="713.5" type="line"/>
      <point x="317.514" y="108.25999999999999" type="line"/>
      <point x="330.74" y="120.74" type="line"/>
      <point x="330.74" y="0.0" type="line"/>
      <point x="568.74" y="0.0" type="line"/>
      <point x="568.74" y="75.1" type="line"/>
      <point x="561.668" y="76.82" type="line" smooth="yes"/>
      <point x="549.6179999999999" y="81.98"/>
      <point x="548.688" y="86.4"/>
      <point x="548.688" y="104.22" type="curve" smooth="yes"/>
      <point x="548.688" y="713.5" type="line"/>
    </contour>
    <contour>
      <point x="86.48" y="-91.02000000000001" type="line"/>
      <point x="86.48" y="-189.72" type="line"/>
      <point x="511.726" y="-189.72" type="line"/>
      <point x="511.726" y="-91.02000000000001" type="line"/>
    </contour>
    <contour>
      <point x="207.498" y="653.1" type="line"/>
      <point x="207.498" y="564.12" type="line"/>
      <point x="575.1419999999999" y="564.12" type="line"/>
      <point x="575.1419999999999" y="653.1" type="line"/>
    </contour>
  </outline>
</glyph>
<glyph name="eight.den" format="2">
  <advance width="371.244"/>
  <outline>
    <contour>
      <point x="185.622" y="209.64" type="curve" smooth="yes"/>
      <point x="71.076" y="209.64"/>
      <point x="16.509999999999998" y="173.78"/>
      <point x="16.509999999999998" y="111.2" type="curve" smooth="yes"/>
      <point x="16.509999999999998" y="41.16"/>
      <point x="67.54768421054641" y="-6.0"/>
      <point x="185.622" y="-6.0" type="curve" smooth="yes"/>
      <point x="304.24501052604796" y="-6.0"/>
      <point x="354.64" y="41.16"/>
      <point x="354.64" y="111.2" type="curve" smooth="yes"/>
      <point x="354.64" y="172.92000000000002"/>
      <point x="301.474" y="209.64"/>
    </contour>
    <contour>
      <point x="185.622" y="173.9" type="curve" smooth="yes"/>
      <point x="202.0028125" y="173.9"/>
      <point x="202.544" y="152.76"/>
      <point x="202.544" y="115.06" type="curve" smooth="yes"/>
      <point x="202.544" y="76.06"/>
      <point x="199.6028125" y="56.5"/>
      <point x="185.622" y="56.5" type="curve" smooth="yes"/>
      <point x="171.0771875" y="56.5"/>
      <point x="168.7" y="76.06"/>
      <point x="168.7" y="115.06" type="curve" smooth="yes"/>
      <point x="168.7" y="152.76"/>
      <point x="169.4445" y="173.9"/>
    </contour>
    <contour>
      <point x="185.622" y="378.68" type="curve" smooth="yes"/>
      <point x="73.23" y="378.68"/>
      <point x="27.348" y="334.08"/>
      <point x="27.348" y="280.36" type="curve" smooth="yes"/>
      <point x="27.348" y="224.06"/>
      <point x="76.266" y="189.62"/>
      <point x="185.622" y="189.62" type="curve" smooth="yes"/>
      <point x="294.52" y="189.62"/>
      <point x="343.802" y="224.06"/>
      <point x="343.802" y="280.36" type="curve" smooth="yes"/>
      <point x="343.802" y="334.08"/>
      <point x="299.956" y="378.68"/>
    </contour>
    <contour>
      <point x="185.622" y="222.36" type="curve" smooth="yes"/>
      <point x="169.86901960786602" y="222.36"/>
      <point x="166.476" y="237.78"/>
      <point x="166.476" y="270.92" type="curve" smooth="yes"/>
      <point x="166.476" y="299.9"/>
      <point x="169.23301960786603" y="316.32"/>
      <point x="185.622" y="316.32" type="curve" smooth="yes"/>
      <point x="202.12113725485" y="316.32"/>
      <point x="204.674" y="299.9"/>
      <point x="204.674" y="270.92" type="curve" smooth="yes"/>
      <point x="204.674" y="237.78"/>
      <point x="200.92113725485" y="222.36"/>
    </contour>
  </outline>
</glyph>
<glyph name="eight.lin" format="2">
  <advance width="467.88"/>
  <outline>
    <contour>
      <point x="233.94" y="-10.0" type="curve" smooth="yes"/>
      <point x="382.906" y="-10.0"/>
      <point x="466.15" y="75.73864321607988"/>
      <point x="466.15" y="201.46" type="curve" smooth="yes"/>
      <point x="466.15" y="325.04"/>
      <point x="378.94" y="396.6"/>
      <point x="233.94" y="396.6" type="curve" smooth="yes"/>
      <point x="88.94" y="396.6"/>
      <point x="1.730000000000004" y="325.16516787566417"/>
      <point x="1.730000000000004" y="201.46" type="curve" smooth="yes"/>
      <point x="1.730000000000004" y="75.65007544357192"/>
      <point x="84.974" y="-10.0"/>
    </contour>
    <contour>
      <point x="233.94" y="331.52" type="curve" smooth="yes"/>
      <point x="248.41400000000002" y="331.52"/>
      <point x="251.674" y="297.9926107382386"/>
      <point x="251.674" y="207.32" type="curve" smooth="yes"/>
      <point x="251.674" y="122.77545833330859"/>
      <point x="247.214" y="84.39999999999999"/>
      <point x="233.94" y="84.39999999999999" type="curve" smooth="yes"/>
      <point x="220.666" y="84.39999999999999"/>
      <point x="216.20600000000002" y="122.77545833330859"/>
      <point x="216.20600000000002" y="207.32" type="curve" smooth="yes"/>
      <point x="216.20600000000002" y="297.9926107382386"/>
      <point x="219.466" y="331.52"/>
    </contour>
    <contour>
      <point x="233.94" y="360.4" type="curve" smooth="yes"/>
      <point x="369.39414634136" y="360.4"/>
      <point x="447.604" y="426.54"/>
      <point x="447.604" y="538.7" type="curve" smooth="yes"/>
      <point x="447.604" y="645.2973133333086"/>
      <point x="368.45374358973" y="720.0"/>
      <point x="233.94" y="720.0" type="curve" smooth="yes"/>
      <point x="99.42625641027" y="720.0"/>
      <point x="20.276000000000003" y="645.2973133333086"/>
      <point x="20.276000000000003" y="538.7" type="curve" smooth="yes"/>
      <point x="20.276000000000003" y="426.54"/>
      <point x="98.48585365864" y="360.4"/>
    </contour>
    <contour>
      <point x="233.94" y="625.6" type="curve" smooth="yes"/>
      <point x="247.12" y="625.6"/>
      <point x="251.768" y="597.9731276923134"/>
      <point x="251.768" y="524.4" type="curve" smooth="yes"/>
      <point x="251.768" y="447.2892125983954"/>
      <point x="247.12" y="420.48"/>
      <point x="233.94" y="420.48" type="curve" smooth="yes"/>
      <point x="220.76" y="420.48"/>
      <point x="216.112" y="447.2892125983954"/>
      <point x="216.112" y="524.4" type="curve" smooth="yes"/>
      <point x="216.112" y="597.9731276923134"/>
      <point x="220.76" y="625.6"/>
    </contour>
  </outline>
</glyph>
<glyph name="f_f.alt" format="2">
  <advance width="685.498"/>
  <outline>
    <contour>
      <point x="-6.378" y="513.16" type="line"/>
      <point x="-6.378" y="432.08" type="line"/>
      <point x="373.28000000000003" y="432.08" type="line"/>
      <point x="373.28000000000003" y="513.16" type="line"/>
    </contour>
    <contour>
      <point x="292.178" y="513.16" type="line"/>
      <point x="292.178" y="432.08" type="line"/>
      <point x="674.8720000000001" y="432.08" type="line"/>
      <point x="674.8720000000001" y="513.16" type="line"/>
    </contour>
    <contour>
      <point x="345.956" y="79.94" type="line" smooth="yes"/>
      <point x="345.956" y="73.80000000000001"/>
      <point x="334.212" y="71.66"/>
      <point x="333.882" y="71.66" type="curve" smooth="yes"/>
      <point x="331.47" y="71.66" type="line"/>
      <point x="331.47" y="0.0" type="line"/>
      <point x="625.966" y="0.0" type="line"/>
      <point x="625.966" y="71.66" type="line"/>
      <point x="618.352" y="71.66" type="line" smooth="yes"/>
      <point x="601.242" y="71.66"/>
      <point x="575.9300000000001" y="73.80000000000001"/>
      <point x="575.9300000000001" y="79.94" type="curve" smooth="yes"/>
      <point x="575.9300000000001" y="554.52" type="line" smooth="yes"/>
      <point x="575.9300000000001" y="630.48"/>
      <point x="584.038" y="662.46"/>
      <point x="618.87" y="662.46" type="curve" smooth="yes"/>
      <point x="634.698" y="662.46"/>
      <point x="645.3000000000001" y="651.62"/>
      <point x="646.936" y="640.96" type="curve"/>
      <point x="669.53" y="642.62"/>
      <point x="668.1179999999999" y="687.06"/>
      <point x="631.344" y="688.64" type="curve"/>
      <point x="631.344" y="578.74" type="line"/>
      <point x="782.5219999999999" y="578.74" type="line"/>
      <point x="782.5219999999999" y="714.54" type="line"/>
      <point x="745.078" y="730.42"/>
      <point x="673.884" y="747.7"/>
      <point x="594.076" y="747.7" type="curve" smooth="yes"/>
      <point x="451.558" y="747.7"/>
      <point x="345.956" y="692.16"/>
      <point x="345.956" y="542.48" type="curve" smooth="yes"/>
    </contour>
    <contour>
      <point x="277.374" y="79.94" type="curve" smooth="yes"/>
      <point x="277.374" y="543.12" type="line"/>
      <point x="277.374" y="619.08"/>
      <point x="285.282" y="651.06"/>
      <point x="324.57399999999996" y="651.06" type="curve" smooth="yes"/>
      <point x="353.322" y="651.06"/>
      <point x="363.278" y="633.36"/>
      <point x="363.28999999999996" y="602.7" type="curve"/>
      <point x="360.96" y="652.74"/>
      <point x="383.20000000000005" y="675.52"/>
      <point x="345.956" y="674.3" type="curve"/>
      <point x="345.956" y="543.14" type="line"/>
      <point x="453.394" y="575.94" type="line"/>
      <point x="473.446" y="698.66" type="line"/>
      <point x="450.97" y="716.92"/>
      <point x="387.954" y="736.3"/>
      <point x="301.486" y="736.3" type="curve" smooth="yes"/>
      <point x="160.71" y="736.3"/>
      <point x="47.400000000000006" y="680.76"/>
      <point x="47.400000000000006" y="531.08" type="curve" smooth="yes"/>
      <point x="47.400000000000006" y="102.5" type="line" smooth="yes"/>
      <point x="47.400000000000006" y="81.24000000000001"/>
      <point x="37.692" y="71.66"/>
      <point x="18.945999999999998" y="71.66" type="curve" smooth="yes"/>
      <point x="8.625999999999998" y="71.66" type="line"/>
      <point x="8.625999999999998" y="0.0" type="line"/>
      <point x="300.568" y="0.0" type="line"/>
      <point x="300.568" y="71.66" type="line"/>
      <point x="298.038" y="71.66" type="line" smooth="yes"/>
      <point x="283.846" y="71.66"/>
      <point x="277.374" y="73.80000000000001"/>
    </contour>
  </outline>
</glyph>
<glyph name="f_h" format="2">
  <advance width="893.514"/>
  <outline>
    <contour>
      <point x="-6.378" y="513.16" type="line"/>
      <point x="-6.378" y="432.08" type="line"/>
      <point x="323.88" y="432.08" type="line"/>
      <point x="323.88" y="513.16" type="line"/>
    </contour>
    <contour>
      <point x="890.0899999999999" y="0.0" type="line"/>
      <point x="890.0899999999999" y="71.66" type="line"/>
      <point x="888.56" y="71.66" type="line" smooth="yes"/>
      <point x="878.24" y="71.66"/>
      <point x="870.038" y="77.80000000000001"/>
      <point x="870.038" y="99.06" type="curve" smooth="yes"/>
      <point x="870.038" y="344.96" type="line" smooth="yes"/>
      <point x="870.038" y="461.12"/>
      <point x="810.8699999999999" y="523.16"/>
      <point x="719.342" y="523.16" type="curve" smooth="yes"/>
      <point x="646.63" y="523.16"/>
      <point x="588.192" y="475.62"/>
      <point x="566.54" y="396.46" type="curve"/>
      <point x="577.86" y="325.02" type="line"/>
      <point x="586.674" y="375.32"/>
      <point x="599.736" y="406.84000000000003"/>
      <point x="617.1759999999999" y="406.84000000000003" type="curve" smooth="yes"/>
      <point x="633.8620000000001" y="406.84000000000003"/>
      <point x="639.428" y="387.46"/>
      <point x="639.428" y="347.72" type="curve" smooth="yes"/>
      <point x="639.428" y="79.94" type="line" smooth="yes"/>
      <point x="639.428" y="73.80000000000001"/>
      <point x="629.908" y="71.66"/>
      <point x="622.518" y="71.66" type="curve" smooth="yes"/>
      <point x="621.624" y="71.66" type="line"/>
      <point x="621.624" y="0.0" type="line"/>
    </contour>
    <contour>
      <point x="594.37" y="0.0" type="line"/>
      <point x="594.37" y="71.66" type="line"/>
      <point x="591.84" y="71.66" type="line" smooth="yes"/>
      <point x="586.7560000000001" y="71.66"/>
      <point x="576.566" y="73.80000000000001"/>
      <point x="576.566" y="79.94" type="curve" smooth="yes"/>
      <point x="576.566" y="730.7" type="line"/>
      <point x="324.386" y="730.7" type="line"/>
      <point x="345.956" y="675.78" type="line"/>
      <point x="345.956" y="79.94" type="line"/>
      <point x="345.956" y="73.80000000000001"/>
      <point x="336.43600000000004" y="71.66"/>
      <point x="331.352" y="71.66" type="curve" smooth="yes"/>
      <point x="328.94" y="71.66" type="line"/>
      <point x="328.94" y="0.0" type="line"/>
    </contour>
    <contour>
      <point x="298.038" y="0.0" type="line"/>
      <point x="298.038" y="71.66" type="line"/>
      <point x="297.226" y="71.66" type="line" smooth="yes"/>
      <point x="283.34000000000003" y="71.66"/>
      <point x="277.374" y="73.80000000000001"/>
      <point x="277.374" y="79.94" type="curve"/>
      <point x="277.374" y="574.44" type="line" smooth="yes"/>
      <point x="277.374" y="636.02"/>
      <point x="290.06" y="659.02"/>
      <point x="321.456" y="659.02" type="curve" smooth="yes"/>
      <point x="354.958" y="659.02"/>
      <point x="375.916" y="633.42"/>
      <point x="387.578" y="572.26" type="curve"/>
      <point x="492.20399999999995" y="694.7" type="line"/>
      <point x="448.534" y="722.4"/>
      <point x="390.32" y="747.7"/>
      <point x="295.026" y="747.7" type="curve" smooth="yes"/>
      <point x="161.546" y="747.7"/>
      <point x="47.400000000000006" y="695.38"/>
      <point x="47.400000000000006" y="542.62" type="curve" smooth="yes"/>
      <point x="47.400000000000006" y="102.5" type="line" smooth="yes"/>
      <point x="47.400000000000006" y="81.24000000000001"/>
      <point x="37.692" y="71.66"/>
      <point x="18.945999999999998" y="71.66" type="curve" smooth="yes"/>
      <point x="8.625999999999998" y="71.66" type="line"/>
      <point x="8.625999999999998" y="0.0" type="line"/>
    </contour>
  </outline>
</glyph>
<glyph name="g.alt" format="2">
  <advance width="582.344"/>
  <outline>
    <contour>
      <point x="318.926" y="35.12" type="line" smooth="yes"/>
      <point x="318.926" y="-78.06"/>
      <point x="294.708" y="-134.04"/>
      <point x="240.51800000000003" y="-134.04" type="curve" smooth="yes"/>
      <point x="199.308" y="-134.04"/>
      <point x="175.926" y="-113.22"/>
      <point x="163.57" y="-83.7" type="curve"/>
      <point x="148.272" y="-112.5"/>
      <point x="131.05599999999998" y="-169.86"/>
      <point x="181.48" y="-173.58" type="curve"/>
      <point x="181.48" y="-38.68" type="line"/>
      <point x="19.64" y="-38.68" type="line"/>
      <point x="19.64" y="-145.02" type="line"/>
      <point x="48.306000000000004" y="-193.46"/>
      <point x="135.28" y="-234.04"/>
      <point x="263.606" y="-234.04" type="curve" smooth="yes"/>
      <point x="432.51800000000003" y="-234.04"/>
      <point x="550.1" y="-135.74"/>
      <point x="550.1" y="52.46" type="curve" smooth="yes"/>
      <point x="550.1" y="513.58" type="line"/>
      <point x="417.032" y="513.58" type="line"/>
      <point x="342.896" y="409.14" type="line"/>
      <point x="318.926" y="386.82" type="line"/>
    </contour>
    <contour>
      <point x="250.06199999999998" y="256.88" type="curve" smooth="yes"/>
      <point x="250.06199999999998" y="355.5437440994808"/>
      <point x="258.264" y="416.28"/>
      <point x="289.542" y="416.28" type="curve" smooth="yes"/>
      <point x="321.35" y="416.28"/>
      <point x="328.01" y="368.42"/>
      <point x="341.308" y="304.4" type="curve"/>
      <point x="379.164" y="322.1" type="line"/>
      <point x="365.608" y="454.54"/>
      <point x="315.772" y="523.16"/>
      <point x="209.84" y="523.16" type="curve" smooth="yes"/>
      <point x="96.412" y="523.16"/>
      <point x="15.391999999999998" y="413.3594521740914"/>
      <point x="15.391999999999998" y="256.88" type="curve" smooth="yes"/>
      <point x="15.391999999999998" y="104.32"/>
      <point x="87.81" y="3.619999999999999"/>
      <point x="202.94400000000002" y="3.619999999999999" type="curve" smooth="yes"/>
      <point x="290.554" y="3.619999999999999"/>
      <point x="328.022" y="61.9"/>
      <point x="366.02" y="176.14" type="curve"/>
      <point x="340.872" y="233.4" type="line"/>
      <point x="319.10200000000003" y="159.34"/>
      <point x="308.676" y="110.5"/>
      <point x="282.14" y="110.5" type="curve" smooth="yes"/>
      <point x="257.62800000000004" y="110.5"/>
      <point x="250.06199999999998" y="161.4"/>
    </contour>
  </outline>
</glyph>
<glyph name="kgreenlandic" format="2">
  <advance width="623.754"/>
  <outline>
    <contour>
      <point x="615.552" y="0.0" type="line"/>
      <point x="615.552" y="71.66" type="line"/>
      <point x="614.0219999999999" y="71.66" type="line"/>
      <point x="594.076" y="71.66"/>
      <point x="576.154" y="80.24000000000001"/>
      <point x="567.0339999999999" y="103.64" type="curve" smooth="yes"/>
      <point x="435.36600000000004" y="366.48" type="line"/>
      <point x="378.552" y="269.3" type="line"/>
      <point x="503.93600000000004" y="401.96" type="line" smooth="yes"/>
      <point x="521.046" y="423.92"/>
      <point x="543.828" y="441.5"/>
      <point x="575.942" y="441.5" type="curve"/>
      <point x="577.378" y="441.5" type="line"/>
      <point x="577.378" y="513.16" type="line"/>
      <point x="351.51" y="513.16" type="line"/>
      <point x="351.51" y="441.5" type="line"/>
      <point x="354.476" y="441.5" type="line" smooth="yes"/>
      <point x="372.504" y="441.5"/>
      <point x="408.336" y="438.5"/>
      <point x="408.336" y="423.5" type="curve"/>
      <point x="276.16200000000003" y="279.88" type="line"/>
      <point x="276.16200000000003" y="249.94" type="line"/>
      <point x="326.61" y="79.94" type="line"/>
      <point x="326.61" y="73.80000000000001"/>
      <point x="316.984" y="71.66"/>
      <point x="311.9" y="71.66" type="curve" smooth="yes"/>
      <point x="309.37" y="71.66" type="line"/>
      <point x="309.37" y="0.0" type="line"/>
    </contour>
    <contour>
      <point x="9.332" y="0.0" type="line"/>
      <point x="277.704" y="0.0" type="line"/>
      <point x="277.704" y="71.66" type="line"/>
      <point x="275.17400000000004" y="71.66" type="line" smooth="yes"/>
      <point x="269.98400000000004" y="71.66"/>
      <point x="260.464" y="73.80000000000001"/>
      <point x="260.464" y="79.94" type="curve"/>
      <point x="260.464" y="513.16" type="line"/>
      <point x="9.438" y="513.16" type="line"/>
      <point x="9.438" y="437.92" type="line"/>
      <point x="14.886" y="435.92" type="line" smooth="yes"/>
      <point x="26.429999999999993" y="429.5"/>
      <point x="29.290000000000006" y="425.08"/>
      <point x="29.290000000000006" y="407.26" type="curve" smooth="yes"/>
      <point x="29.290000000000006" y="99.06" type="line"/>
      <point x="29.290000000000006" y="77.80000000000001"/>
      <point x="20.345999999999997" y="71.66"/>
      <point x="10.131999999999998" y="71.66" type="curve" smooth="yes"/>
      <point x="9.332" y="71.66" type="line"/>
    </contour>
  </outline>
</glyph>
<glyph name="minus.sup" format="2">
  <advance width="343.944"/>
  <outline>
    <contour>
      <point x="297.532" y="563.76" type="line"/>
      <point x="46.976" y="563.76" type="line"/>
      <point x="46.976" y="472.76" type="line"/>
      <point x="297.532" y="472.76" type="line"/>
    </contour>
  </outline>
</glyph>
<glyph name="nine.den" format="2">
  <advance width="356.064"/>
  <outline>
    <contour>
      <point x="45.058" y="45.8" type="line"/>
      <point x="136.69645236056002" y="53.510600001568804"/>
      <point x="195.072" y="104.14"/>
      <point x="195.072" y="218.48" type="curve" smooth="yes"/>
      <point x="195.072" y="306.08"/>
      <point x="191.168727272708" y="322.48"/>
      <point x="178.45600000000002" y="322.48" type="curve" smooth="yes"/>
      <point x="165.20935483869602" y="322.48"/>
      <point x="162.428" y="305.3293555556062"/>
      <point x="162.428" y="252.94" type="curve" smooth="yes"/>
      <point x="162.428" y="211.66"/>
      <point x="167.231857142842" y="184.52"/>
      <point x="185.54" y="184.52" type="curve" smooth="yes"/>
      <point x="195.878385542184" y="184.52"/>
      <point x="205.399819561276" y="201.7478362381058"/>
      <point x="214.5" y="226.28" type="curve"/>
      <point x="212.288" y="188.12" type="line"/>
      <point x="206.7135695288" y="163.1533963716988"/>
      <point x="179.94293333329801" y="130.9"/>
      <point x="129.31400000000002" y="130.9" type="curve" smooth="yes"/>
      <point x="63.18" y="130.9"/>
      <point x="18.240000000000002" y="174.34"/>
      <point x="18.240000000000002" y="248.36" type="curve" smooth="yes"/>
      <point x="18.240000000000002" y="332.4342764705078"/>
      <point x="83.856" y="378.68"/>
      <point x="178.656" y="378.68" type="curve" smooth="yes"/>
      <point x="288.33000000000004" y="378.68"/>
      <point x="337.82399999999996" y="324.94"/>
      <point x="337.82399999999996" y="218.34" type="curve" smooth="yes"/>
      <point x="337.82399999999996" y="83.54"/>
      <point x="224.42000000000002" y="0.43999999999999995"/>
      <point x="53.153999999999996" y="-10.26" type="curve"/>
    </contour>
  </outline>
</glyph>
<glyph name="nine.old" format="2">
  <advance width="467.88"/>
  <outline>
    <contour>
      <point x="51.648" y="-79.1" type="line"/>
      <point x="168.43" y="-58.78"/>
      <point x="248.93200000000002" y="50.32"/>
      <point x="248.93200000000002" y="277.68" type="curve"/>
      <point x="248.93200000000002" y="430.16"/>
      <point x="247.72" y="472.2"/>
      <point x="237.60000000000002" y="472.2" type="curve" smooth="yes"/>
      <point x="224.526" y="472.2"/>
      <point x="222.39600000000002" y="429.12"/>
      <point x="222.39600000000002" y="332.56" type="curve" smooth="yes"/>
      <point x="222.39600000000002" y="250.3"/>
      <point x="220.17199999999997" y="202.64"/>
      <point x="243.66" y="202.64" type="curve" smooth="yes"/>
      <point x="255.428" y="202.64"/>
      <point x="267.654" y="238.82"/>
      <point x="282.67" y="286.98" type="curve"/>
      <point x="286.082" y="215.06" type="line"/>
      <point x="273.55" y="168.88"/>
      <point x="249.108" y="116.84"/>
      <point x="177.62" y="116.84" type="curve" smooth="yes"/>
      <point x="77.56" y="116.84"/>
      <point x="9.814" y="188.66"/>
      <point x="9.814" y="326.54" type="curve" smooth="yes"/>
      <point x="9.814" y="469.58"/>
      <point x="97.036" y="558.0"/>
      <point x="231.52800000000002" y="558.0" type="curve" smooth="yes"/>
      <point x="381.082" y="558.0"/>
      <point x="459.078" y="468.18"/>
      <point x="459.078" y="269.5" type="curve" smooth="yes"/>
      <point x="459.078" y="31.439999999999998"/>
      <point x="297.038" y="-137.86"/>
      <point x="64.004" y="-164.9" type="curve"/>
    </contour>
  </outline>
</glyph>
<glyph name="parenleft.uc" format="2">
  <advance width="332.294"/>
  <outline>
    <contour>
      <point x="209.95800000000003" y="356.4" type="curve" smooth="yes"/>
      <point x="209.95800000000003" y="158.0"/>
      <point x="272.9074023487236" y="35.14966766529521"/>
      <point x="326.704" y="-31.84" type="curve"/>
      <point x="326.704" y="-34.84" type="line"/>
      <point x="197.684" y="-34.84" type="line"/>
      <point x="105.32" y="29.7"/>
      <point x="22.052000000000003" y="161.44"/>
      <point x="22.052000000000003" y="356.4" type="curve" smooth="yes"/>
      <point x="22.052000000000003" y="544.56"/>
      <point x="105.32000000000001" y="676.44"/>
      <point x="197.684" y="741.4" type="curve"/>
      <point x="326.704" y="741.4" type="line"/>
      <point x="326.704" y="738.4" type="line"/>
      <point x="272.8014023487237" y="670.9903323347048"/>
      <point x="209.95800000000003" y="548.14"/>
    </contour>
  </outline>
</glyph>
<glyph name="rupeeIndian.proportional" format="2">
  <advance width="502.548"/>
  <outline>
    <contour>
      <point x="36.268" y="518.42" type="line"/>
      <point x="36.268" y="426.86" type="line"/>
      <point x="477.812" y="426.86" type="line"/>
      <point x="477.812" y="518.42" type="line"/>
    </contour>
    <contour>
      <point x="100.95400000000001" y="257.2" type="line"/>
      <point x="134.492" y="257.2" type="line" smooth="yes"/>
      <point x="298.75600000000003" y="257.2"/>
      <point x="407.218" y="340.04"/>
      <point x="407.218" y="453.42" type="curve" smooth="yes"/>
      <point x="407.218" y="564.64"/>
      <point x="358.594" y="635.8"/>
      <point x="188.64600000000002" y="643.9" type="curve"/>
      <point x="175.902" y="682.12"/>
      <point x="80.114" y="689.98"/>
      <point x="168.5" y="620.16" type="curve"/>
      <point x="477.812" y="620.16" type="line"/>
      <point x="477.812" y="710.0" type="line"/>
      <point x="36.268" y="710.0" type="line"/>
      <point x="36.268" y="616.02" type="line"/>
      <point x="93.28200000000001" y="616.02" type="line" smooth="yes"/>
      <point x="186.952" y="616.02"/>
      <point x="210.628" y="562.18"/>
      <point x="210.628" y="472.34000000000003" type="curve" smooth="yes"/>
      <point x="210.628" y="384.52"/>
      <point x="187.976" y="329.12"/>
      <point x="89.822" y="329.12" type="curve" smooth="yes"/>
      <point x="36.268" y="329.12" type="line"/>
      <point x="36.268" y="251.0" type="line"/>
      <point x="220.372" y="0.0" type="line"/>
      <point x="465.95" y="0.0" type="line"/>
      <point x="465.95" y="75.38" type="line"/>
      <point x="455.83000000000004" y="75.38" type="line" smooth="yes"/>
      <point x="433.036" y="75.38"/>
      <point x="419.49199999999996" y="83.38"/>
      <point x="402.25199999999995" y="103.38" type="curve" smooth="yes"/>
      <point x="246.89600000000002" y="302.66" type="line"/>
    </contour>
  </outline>
</glyph>
<glyph name="seven.old" format="2">
  <advance width="467.88"/>
  <outline>
    <contour>
      <point x="185.034" y="399.62" type="line" smooth="yes"/>
      <point x="138.622" y="399.62"/>
      <point x="121.312" y="392.62"/>
      <point x="117.782" y="356.62" type="curve" smooth="yes"/>
      <point x="112.02799999999999" y="282.1" type="line"/>
      <point x="40.634" y="282.1" type="line"/>
      <point x="40.634" y="548.0" type="line"/>
      <point x="453.312" y="548.0" type="line"/>
      <point x="453.312" y="413.52" type="line"/>
      <point x="369.938" y="268.74"/>
      <point x="327.198" y="168.82"/>
      <point x="323.374" y="-137.58" type="curve"/>
      <point x="119.006" y="-137.58" type="line"/>
      <point x="136.104" y="153.5"/>
      <point x="310.806" y="349.9"/>
      <point x="392.626" y="435.26" type="curve"/>
      <point x="416.92600000000004" y="399.62" type="line"/>
    </contour>
  </outline>
</glyph>
<glyph name="slash.uc" format="2">
  <advance width="427.376"/>
  <outline>
    <contour>
      <point x="291.142" y="741.4" type="line"/>
      <point x="36.562" y="-34.7" type="line"/>
      <point x="183.60999999999996" y="-34.7" type="line"/>
      <point x="438.18999999999994" y="741.4" type="line"/>
    </contour>
  </outline>
</glyph>
<glyph name="two.den" format="2">
  <advance width="322.574"/>
  <outline>
    <contour>
      <point x="192.518" y="101.44" type="line" smooth="yes"/>
      <point x="231.198" y="101.44"/>
      <point x="243.542" y="105.44"/>
      <point x="248.108" y="127.88" type="curve" smooth="yes"/>
      <point x="253.274" y="157.42000000000002" type="line"/>
      <point x="307.582" y="157.42000000000002" type="line"/>
      <point x="307.582" y="0.0" type="line"/>
      <point x="15.698" y="0.0" type="line"/>
      <point x="15.698" y="108.86" type="line"/>
      <point x="118.476" y="163.86"/>
      <point x="155.144" y="189.2"/>
      <point x="155.144" y="268.64" type="curve" smooth="yes"/>
      <point x="155.144" y="303.76"/>
      <point x="147.542" y="319.04"/>
      <point x="132.162" y="319.04" type="curve" smooth="yes"/>
      <point x="110.38" y="319.04"/>
      <point x="98.46" y="290.02"/>
      <point x="96.118" y="271.04" type="curve"/>
      <point x="96.012" y="288.46"/>
      <point x="103.602" y="329.1"/>
      <point x="122.524" y="330.96" type="curve"/>
      <point x="122.524" y="250.76" type="line"/>
      <point x="16.416" y="250.76" type="line"/>
      <point x="16.416" y="311.36" type="line"/>
      <point x="42.34" y="353.26"/>
      <point x="88.728" y="378.68"/>
      <point x="158.474" y="378.68" type="curve" smooth="yes"/>
      <point x="252.274" y="378.68"/>
      <point x="298.768" y="335.94"/>
      <point x="298.768" y="266.64" type="curve" smooth="yes"/>
      <point x="298.768" y="170.6"/>
      <point x="175.29000000000002" y="123.68"/>
      <point x="83.032" y="83.86" type="curve"/>
      <point x="67.464" y="84.0"/>
      <point x="73.1" y="97.58"/>
      <point x="72.7" y="101.44" type="curve"/>
    </contour>
  </outline>
</glyph>
